<svg width="320" height="227" viewBox="0 0 320 227" fill="none" xmlns="http://www.w3.org/2000/svg">
<path d="M48.8184 58.6953H9.41406C11.4648 42.7773 17.1777 29.9844 26.5527 20.3164C39.6387 6.83984 56.0938 0.101562 75.918 0.101562C93.5938 0.101562 108.389 5.7168 120.303 16.9473C132.314 28.1777 138.32 41.5078 138.32 56.9375C138.32 66.5078 135.684 75.248 130.41 83.1582C125.234 91.0684 117.666 97.4648 107.705 102.348C120.791 106.254 130.996 113.09 138.32 122.855C145.742 132.523 149.453 143.949 149.453 157.133C149.453 176.469 142.324 192.875 128.066 206.352C113.809 219.73 95.6445 226.42 73.5742 226.42C52.6758 226.42 35.6348 220.121 22.4512 207.523C9.26758 194.828 2.04102 177.592 0.771484 155.814H41.3477C43.1055 166.947 46.9629 175.248 52.9199 180.717C58.9746 186.088 66.5918 188.773 75.7715 188.773C85.3418 188.773 93.252 185.697 99.502 179.545C105.85 173.393 109.023 165.873 109.023 156.986C109.023 147.221 104.775 138.969 96.2793 132.23C87.7832 125.492 75.5273 122.025 59.5117 121.83V86.6738C69.375 85.8926 76.6992 84.3789 81.4844 82.1328C86.3672 79.7891 90.127 76.6152 92.7637 72.6113C95.498 68.6074 96.8652 64.3594 96.8652 59.8672C96.8652 54.0078 94.8145 49.1738 90.7129 45.3652C86.6113 41.459 81.2402 39.5059 74.5996 39.5059C68.7402 39.5059 63.418 41.3125 58.6328 44.9258C53.8477 48.4414 50.5762 53.0312 48.8184 58.6953ZM243.35 0.101562C259.072 0.101562 272.598 3.95898 283.926 11.6738C295.352 19.3887 304.141 31.2051 310.293 47.123C316.543 62.9434 319.668 85.0137 319.668 113.334C319.668 141.947 316.494 164.213 310.146 180.131C303.896 196.049 295.449 207.768 284.805 215.287C274.16 222.709 260.732 226.42 244.521 226.42C228.311 226.42 214.688 222.66 203.652 215.141C192.617 207.621 183.975 196.195 177.725 180.863C171.475 165.531 168.35 143.705 168.35 115.385C168.35 75.834 174.453 47.1719 186.66 29.3984C200.234 9.86719 219.131 0.101562 243.35 0.101562ZM244.375 39.0664C237.441 39.0664 231.289 41.3125 225.918 45.8047C220.547 50.1992 216.445 57.8164 213.613 68.6562C210.781 79.4961 209.365 95.3652 209.365 116.264C209.365 143.51 212.588 162.357 219.033 172.807C225.576 183.158 234.023 188.334 244.375 188.334C254.336 188.334 262.246 183.402 268.105 173.539C275.234 161.625 278.799 141.703 278.799 113.773C278.799 85.4531 275.576 65.9219 269.131 55.1797C262.783 44.4375 254.531 39.0664 244.375 39.0664Z" fill="url(#paint0_linear_49_1663)"/>
<defs>
<linearGradient id="paint0_linear_49_1663" x1="25.5" y1="10" x2="281.5" y2="255.5" gradientUnits="userSpaceOnUse">
<stop stop-color="#CD1332"/>
<stop offset="1" stop-color="#F04D32"/>
</linearGradient>
</defs>
</svg>
