<svg width="292" height="131" viewBox="0 0 292 131" fill="none" xmlns="http://www.w3.org/2000/svg">
<path d="M15.2344 1.26953L28.6328 30H25.5469L21.0352 20.5469H8.65234L4.16016 30H0.957031L14.5312 1.26953H15.2344ZM14.8828 7.36328L9.94141 17.7734H19.7656L14.8828 7.36328ZM32.6562 8.75H35.3906V12.5586C36.4844 11.1003 37.6953 10.013 39.0234 9.29688C40.3516 8.56771 41.7969 8.20312 43.3594 8.20312C44.9479 8.20312 46.3542 8.60677 47.5781 9.41406C48.8151 10.2214 49.7266 11.3086 50.3125 12.6758C50.8984 14.043 51.1914 16.1719 51.1914 19.0625V30H48.4766V19.8633C48.4766 17.4154 48.3724 15.7812 48.1641 14.9609C47.8385 13.5547 47.2266 12.5 46.3281 11.7969C45.4297 11.0807 44.2578 10.7227 42.8125 10.7227C41.1589 10.7227 39.6745 11.2695 38.3594 12.3633C37.0573 13.457 36.1979 14.8112 35.7812 16.4258C35.5208 17.4805 35.3906 19.4076 35.3906 22.207V30H32.6562V8.75ZM47.5977 0.859375L48.9648 2.75391C48.0273 3.43099 47.2331 3.88672 46.582 4.12109C45.944 4.35547 45.2669 4.47266 44.5508 4.47266C43.6133 4.47266 42.6497 4.23177 41.6602 3.75C40.8138 3.33333 40.2734 3.09245 40.0391 3.02734C39.7266 2.9362 39.388 2.89062 39.0234 2.89062C38.5677 2.89062 38.1315 2.97526 37.7148 3.14453C37.3112 3.30078 36.7188 3.66536 35.9375 4.23828L34.6484 2.24609C35.8333 0.983073 37.2982 0.351562 39.043 0.351562C39.8763 0.351562 40.8724 0.611979 42.0312 1.13281C43.138 1.64062 44.0104 1.89453 44.6484 1.89453C45.3646 1.89453 46.3477 1.54948 47.5977 0.859375ZM67.1289 8.20312C70.3971 8.20312 73.1055 9.38802 75.2539 11.7578C77.207 13.9193 78.1836 16.4779 78.1836 19.4336C78.1836 22.4023 77.1484 25 75.0781 27.2266C73.0208 29.4401 70.3711 30.5469 67.1289 30.5469C63.8737 30.5469 61.2109 29.4401 59.1406 27.2266C57.0833 25 56.0547 22.4023 56.0547 19.4336C56.0547 16.4909 57.0312 13.9388 58.9844 11.7773C61.1328 9.39453 63.8477 8.20312 67.1289 8.20312ZM67.1289 10.8789C64.8633 10.8789 62.9167 11.7188 61.2891 13.3984C59.6615 15.0781 58.8477 17.1094 58.8477 19.4922C58.8477 21.0286 59.2188 22.4609 59.9609 23.7891C60.7031 25.1172 61.7057 26.1458 62.9688 26.875C64.2318 27.5911 65.6185 27.9492 67.1289 27.9492C68.6393 27.9492 70.026 27.5911 71.2891 26.875C72.5521 26.1458 73.5547 25.1172 74.2969 23.7891C75.0391 22.4609 75.4102 21.0286 75.4102 19.4922C75.4102 17.1094 74.5898 15.0781 72.9492 13.3984C71.3216 11.7188 69.3815 10.8789 67.1289 10.8789ZM93.9648 11.0742L92.207 12.8906C90.7487 11.4714 89.3229 10.7617 87.9297 10.7617C87.0443 10.7617 86.2826 11.0547 85.6445 11.6406C85.0195 12.2266 84.707 12.9102 84.707 13.6914C84.707 14.3815 84.9674 15.0391 85.4883 15.6641C86.0091 16.3021 87.1029 17.0508 88.7695 17.9102C90.8008 18.9648 92.181 19.9805 92.9102 20.957C93.6263 21.9466 93.9844 23.0599 93.9844 24.2969C93.9844 26.0417 93.3724 27.5195 92.1484 28.7305C90.9245 29.9414 89.3945 30.5469 87.5586 30.5469C86.3346 30.5469 85.1628 30.2799 84.043 29.7461C82.9362 29.2122 82.0182 28.4766 81.2891 27.5391L83.0078 25.5859C84.401 27.1615 85.8789 27.9492 87.4414 27.9492C88.5352 27.9492 89.4661 27.5977 90.2344 26.8945C91.0026 26.1914 91.3867 25.3646 91.3867 24.4141C91.3867 23.6328 91.1328 22.9362 90.625 22.3242C90.1172 21.7253 88.9714 20.9701 87.1875 20.0586C85.2734 19.069 83.9714 18.0924 83.2812 17.1289C82.5911 16.1654 82.2461 15.0651 82.2461 13.8281C82.2461 12.2135 82.793 10.8724 83.8867 9.80469C84.9935 8.73698 86.3867 8.20312 88.0664 8.20312C90.0195 8.20312 91.9857 9.16016 93.9648 11.0742ZM24.2578 50.5469V80H21.5625V76.3477C20.4167 77.7409 19.1276 78.7891 17.6953 79.4922C16.276 80.1953 14.7201 80.5469 13.0273 80.5469C10.0195 80.5469 7.44792 79.4596 5.3125 77.2852C3.1901 75.0977 2.12891 72.4414 2.12891 69.3164C2.12891 66.2565 3.20312 63.6393 5.35156 61.4648C7.5 59.2904 10.0846 58.2031 13.1055 58.2031C14.8503 58.2031 16.4258 58.5742 17.832 59.3164C19.2513 60.0586 20.4948 61.1719 21.5625 62.6562V50.5469H24.2578ZM13.3203 60.8398C11.7969 60.8398 10.3906 61.2174 9.10156 61.9727C7.8125 62.7148 6.78385 63.763 6.01562 65.1172C5.26042 66.4714 4.88281 67.9036 4.88281 69.4141C4.88281 70.9115 5.26693 72.3438 6.03516 73.7109C6.80339 75.0781 7.83203 76.1458 9.12109 76.9141C10.4232 77.6693 11.8164 78.0469 13.3008 78.0469C14.7982 78.0469 16.2174 77.6693 17.5586 76.9141C18.8997 76.1589 19.9284 75.1367 20.6445 73.8477C21.3737 72.5586 21.7383 71.1068 21.7383 69.4922C21.7383 67.0312 20.9245 64.974 19.2969 63.3203C17.6823 61.6667 15.6901 60.8398 13.3203 60.8398ZM48.3594 72.9492L50.6641 74.1602C49.9089 75.6445 49.0365 76.8424 48.0469 77.7539C47.0573 78.6654 45.944 79.362 44.707 79.8438C43.4701 80.3125 42.0703 80.5469 40.5078 80.5469C37.0443 80.5469 34.3359 79.4141 32.3828 77.1484C30.4297 74.8698 29.4531 72.2982 29.4531 69.4336C29.4531 66.7383 30.2799 64.3359 31.9336 62.2266C34.0299 59.5443 36.8359 58.2031 40.3516 58.2031C43.9714 58.2031 46.862 59.5768 49.0234 62.3242C50.5599 64.2643 51.3411 66.6862 51.3672 69.5898H32.2656C32.3177 72.0638 33.1055 74.0951 34.6289 75.6836C36.1523 77.2591 38.0339 78.0469 40.2734 78.0469C41.3542 78.0469 42.4023 77.8581 43.418 77.4805C44.4466 77.1029 45.319 76.6016 46.0352 75.9766C46.7513 75.3516 47.526 74.3424 48.3594 72.9492ZM48.3594 67.2266C47.9948 65.7682 47.4609 64.6029 46.7578 63.7305C46.0677 62.8581 45.1497 62.1549 44.0039 61.6211C42.8581 61.0872 41.6536 60.8203 40.3906 60.8203C38.3073 60.8203 36.5169 61.4909 35.0195 62.832C33.9258 63.8086 33.099 65.2734 32.5391 67.2266H48.3594ZM85.4688 72.9492L87.7734 74.1602C87.0182 75.6445 86.1458 76.8424 85.1562 77.7539C84.1667 78.6654 83.0534 79.362 81.8164 79.8438C80.5794 80.3125 79.1797 80.5469 77.6172 80.5469C74.1536 80.5469 71.4453 79.4141 69.4922 77.1484C67.5391 74.8698 66.5625 72.2982 66.5625 69.4336C66.5625 66.7383 67.3893 64.3359 69.043 62.2266C71.1393 59.5443 73.9453 58.2031 77.4609 58.2031C81.0807 58.2031 83.9714 59.5768 86.1328 62.3242C87.6693 64.2643 88.4505 66.6862 88.4766 69.5898H69.375C69.4271 72.0638 70.2148 74.0951 71.7383 75.6836C73.2617 77.2591 75.1432 78.0469 77.3828 78.0469C78.4635 78.0469 79.5117 77.8581 80.5273 77.4805C81.556 77.1029 82.4284 76.6016 83.1445 75.9766C83.8607 75.3516 84.6354 74.3424 85.4688 72.9492ZM85.4688 67.2266C85.1042 65.7682 84.5703 64.6029 83.8672 63.7305C83.1771 62.8581 82.2591 62.1549 81.1133 61.6211C79.9674 61.0872 78.763 60.8203 77.5 60.8203C75.4167 60.8203 73.6263 61.4909 72.1289 62.832C71.0352 63.8086 70.2083 65.2734 69.6484 67.2266H85.4688ZM91.1719 58.75H94.4531L100.078 66.6211L105.703 58.75H108.984L101.719 68.8477L109.902 80H106.582L100.078 71.0742L93.6719 80H90.4102L98.457 68.8477L91.1719 58.75ZM112.852 58.75H115.566V62.6562C116.647 61.1719 117.891 60.0586 119.297 59.3164C120.703 58.5742 122.272 58.2031 124.004 58.2031C127.025 58.2031 129.609 59.2904 131.758 61.4648C133.906 63.6393 134.98 66.2565 134.98 69.3164C134.98 72.4414 133.913 75.0977 131.777 77.2852C129.655 79.4596 127.09 80.5469 124.082 80.5469C122.389 80.5469 120.833 80.1953 119.414 79.4922C117.995 78.7891 116.712 77.7409 115.566 76.3477V87.7734H112.852V58.75ZM123.789 60.8398C121.419 60.8398 119.421 61.6667 117.793 63.3203C116.178 64.974 115.371 67.0312 115.371 69.4922C115.371 71.1068 115.729 72.5586 116.445 73.8477C117.174 75.1367 118.21 76.1589 119.551 76.9141C120.905 77.6693 122.331 78.0469 123.828 78.0469C125.299 78.0469 126.68 77.6693 127.969 76.9141C129.271 76.1458 130.306 75.0781 131.074 73.7109C131.842 72.3438 132.227 70.9115 132.227 69.4141C132.227 67.9036 131.842 66.4714 131.074 65.1172C130.319 63.763 129.297 62.7148 128.008 61.9727C126.719 61.2174 125.312 60.8398 123.789 60.8398ZM158.008 72.9492L160.312 74.1602C159.557 75.6445 158.685 76.8424 157.695 77.7539C156.706 78.6654 155.592 79.362 154.355 79.8438C153.118 80.3125 151.719 80.5469 150.156 80.5469C146.693 80.5469 143.984 79.4141 142.031 77.1484C140.078 74.8698 139.102 72.2982 139.102 69.4336C139.102 66.7383 139.928 64.3359 141.582 62.2266C143.678 59.5443 146.484 58.2031 150 58.2031C153.62 58.2031 156.51 59.5768 158.672 62.3242C160.208 64.2643 160.99 66.6862 161.016 69.5898H141.914C141.966 72.0638 142.754 74.0951 144.277 75.6836C145.801 77.2591 147.682 78.0469 149.922 78.0469C151.003 78.0469 152.051 77.8581 153.066 77.4805C154.095 77.1029 154.967 76.6016 155.684 75.9766C156.4 75.3516 157.174 74.3424 158.008 72.9492ZM158.008 67.2266C157.643 65.7682 157.109 64.6029 156.406 63.7305C155.716 62.8581 154.798 62.1549 153.652 61.6211C152.507 61.0872 151.302 60.8203 150.039 60.8203C147.956 60.8203 146.165 61.4909 144.668 62.832C143.574 63.8086 142.747 65.2734 142.188 67.2266H158.008ZM165.098 58.75H167.891V61.8555C168.724 60.6315 169.603 59.7201 170.527 59.1211C171.452 58.5091 172.415 58.2031 173.418 58.2031C174.173 58.2031 174.98 58.444 175.84 58.9258L174.414 61.2305C173.841 60.9831 173.359 60.8594 172.969 60.8594C172.057 60.8594 171.178 61.237 170.332 61.9922C169.486 62.7344 168.841 63.8932 168.398 65.4688C168.06 66.6797 167.891 69.1276 167.891 72.8125V80H165.098V58.75ZM179.121 50C179.746 50 180.28 50.2214 180.723 50.6641C181.165 51.1068 181.387 51.6406 181.387 52.2656C181.387 52.8776 181.165 53.4049 180.723 53.8477C180.28 54.2904 179.746 54.5117 179.121 54.5117C178.509 54.5117 177.982 54.2904 177.539 53.8477C177.096 53.4049 176.875 52.8776 176.875 52.2656C176.875 51.6406 177.096 51.1068 177.539 50.6641C177.982 50.2214 178.509 50 179.121 50ZM177.754 58.75H180.508V80H177.754V58.75ZM204.062 72.9492L206.367 74.1602C205.612 75.6445 204.74 76.8424 203.75 77.7539C202.76 78.6654 201.647 79.362 200.41 79.8438C199.173 80.3125 197.773 80.5469 196.211 80.5469C192.747 80.5469 190.039 79.4141 188.086 77.1484C186.133 74.8698 185.156 72.2982 185.156 69.4336C185.156 66.7383 185.983 64.3359 187.637 62.2266C189.733 59.5443 192.539 58.2031 196.055 58.2031C199.674 58.2031 202.565 59.5768 204.727 62.3242C206.263 64.2643 207.044 66.6862 207.07 69.5898H187.969C188.021 72.0638 188.809 74.0951 190.332 75.6836C191.855 77.2591 193.737 78.0469 195.977 78.0469C197.057 78.0469 198.105 77.8581 199.121 77.4805C200.15 77.1029 201.022 76.6016 201.738 75.9766C202.454 75.3516 203.229 74.3424 204.062 72.9492ZM204.062 67.2266C203.698 65.7682 203.164 64.6029 202.461 63.7305C201.771 62.8581 200.853 62.1549 199.707 61.6211C198.561 61.0872 197.357 60.8203 196.094 60.8203C194.01 60.8203 192.22 61.4909 190.723 62.832C189.629 63.8086 188.802 65.2734 188.242 67.2266H204.062ZM212.188 58.75H214.922V62.5586C216.016 61.1003 217.227 60.013 218.555 59.2969C219.883 58.5677 221.328 58.2031 222.891 58.2031C224.479 58.2031 225.885 58.6068 227.109 59.4141C228.346 60.2214 229.258 61.3086 229.844 62.6758C230.43 64.043 230.723 66.1719 230.723 69.0625V80H228.008V69.8633C228.008 67.4154 227.904 65.7812 227.695 64.9609C227.37 63.5547 226.758 62.5 225.859 61.7969C224.961 61.0807 223.789 60.7227 222.344 60.7227C220.69 60.7227 219.206 61.2695 217.891 62.3633C216.589 63.457 215.729 64.8112 215.312 66.4258C215.052 67.4805 214.922 69.4076 214.922 72.207V80H212.188V58.75ZM257.227 63.1641L255.059 64.5117C253.184 62.0247 250.625 60.7812 247.383 60.7812C244.792 60.7812 242.637 61.6146 240.918 63.2812C239.212 64.9479 238.359 66.9727 238.359 69.3555C238.359 70.9049 238.75 72.3633 239.531 73.7305C240.326 75.0977 241.406 76.1589 242.773 76.9141C244.154 77.6693 245.697 78.0469 247.402 78.0469C250.527 78.0469 253.079 76.8034 255.059 74.3164L257.227 75.7422C256.211 77.2656 254.844 78.4505 253.125 79.2969C251.419 80.1302 249.473 80.5469 247.285 80.5469C243.926 80.5469 241.139 79.4792 238.926 77.3438C236.712 75.2083 235.605 72.6107 235.605 69.5508C235.605 67.4935 236.12 65.5859 237.148 63.8281C238.19 62.0573 239.616 60.6771 241.426 59.6875C243.236 58.6979 245.26 58.2031 247.5 58.2031C248.906 58.2031 250.26 58.418 251.562 58.8477C252.878 59.2773 253.991 59.8372 254.902 60.5273C255.814 61.2174 256.589 62.0964 257.227 63.1641ZM263.457 50C264.082 50 264.616 50.2214 265.059 50.6641C265.501 51.1068 265.723 51.6406 265.723 52.2656C265.723 52.8776 265.501 53.4049 265.059 53.8477C264.616 54.2904 264.082 54.5117 263.457 54.5117C262.845 54.5117 262.318 54.2904 261.875 53.8477C261.432 53.4049 261.211 52.8776 261.211 52.2656C261.211 51.6406 261.432 51.1068 261.875 50.6641C262.318 50.2214 262.845 50 263.457 50ZM262.09 58.75H264.844V80H262.09V58.75ZM291.68 58.75V80H288.984V76.3477C287.839 77.7409 286.549 78.7891 285.117 79.4922C283.698 80.1953 282.142 80.5469 280.449 80.5469C277.441 80.5469 274.87 79.4596 272.734 77.2852C270.612 75.0977 269.551 72.4414 269.551 69.3164C269.551 66.2565 270.625 63.6393 272.773 61.4648C274.922 59.2904 277.507 58.2031 280.527 58.2031C282.272 58.2031 283.848 58.5742 285.254 59.3164C286.673 60.0586 287.917 61.1719 288.984 62.6562V58.75H291.68ZM280.742 60.8398C279.219 60.8398 277.812 61.2174 276.523 61.9727C275.234 62.7148 274.206 63.763 273.438 65.1172C272.682 66.4714 272.305 67.9036 272.305 69.4141C272.305 70.9115 272.689 72.3438 273.457 73.7109C274.225 75.0781 275.254 76.1458 276.543 76.9141C277.845 77.6693 279.238 78.0469 280.723 78.0469C282.22 78.0469 283.639 77.6693 284.98 76.9141C286.322 76.1589 287.35 75.1367 288.066 73.8477C288.796 72.5586 289.16 71.1068 289.16 69.4922C289.16 67.0312 288.346 64.974 286.719 63.3203C285.104 61.6667 283.112 60.8398 280.742 60.8398ZM20.9375 122.949L23.2422 124.16C22.487 125.645 21.6146 126.842 20.625 127.754C19.6354 128.665 18.5221 129.362 17.2852 129.844C16.0482 130.312 14.6484 130.547 13.0859 130.547C9.6224 130.547 6.91406 129.414 4.96094 127.148C3.00781 124.87 2.03125 122.298 2.03125 119.434C2.03125 116.738 2.85807 114.336 4.51172 112.227C6.60807 109.544 9.41406 108.203 12.9297 108.203C16.5495 108.203 19.4401 109.577 21.6016 112.324C23.138 114.264 23.9193 116.686 23.9453 119.59H4.84375C4.89583 122.064 5.68359 124.095 7.20703 125.684C8.73047 127.259 10.612 128.047 12.8516 128.047C13.9323 128.047 14.9805 127.858 15.9961 127.48C17.0247 127.103 17.8971 126.602 18.6133 125.977C19.3294 125.352 20.1042 124.342 20.9375 122.949ZM20.9375 117.227C20.5729 115.768 20.0391 114.603 19.3359 113.73C18.6458 112.858 17.7279 112.155 16.582 111.621C15.4362 111.087 14.2318 110.82 12.9688 110.82C10.8854 110.82 9.09505 111.491 7.59766 112.832C6.50391 113.809 5.67708 115.273 5.11719 117.227H20.9375ZM29.0625 108.75H31.7969V112.559C32.8906 111.1 34.1016 110.013 35.4297 109.297C36.7578 108.568 38.2031 108.203 39.7656 108.203C41.3542 108.203 42.7604 108.607 43.9844 109.414C45.2214 110.221 46.1328 111.309 46.7188 112.676C47.3047 114.043 47.5977 116.172 47.5977 119.062V130H44.8828V119.863C44.8828 117.415 44.7786 115.781 44.5703 114.961C44.2448 113.555 43.6328 112.5 42.7344 111.797C41.8359 111.081 40.6641 110.723 39.2188 110.723C37.5651 110.723 36.0807 111.27 34.7656 112.363C33.4635 113.457 32.6042 114.811 32.1875 116.426C31.9271 117.48 31.7969 119.408 31.7969 122.207V130H29.0625V108.75ZM63.7109 130L67.793 101.27H68.2617L79.9414 124.844L91.5039 101.27H91.9727L96.0938 130H93.2617L90.4492 109.453L80.293 130H79.5703L69.2773 109.297L66.4844 130H63.7109ZM119.219 122.949L121.523 124.16C120.768 125.645 119.896 126.842 118.906 127.754C117.917 128.665 116.803 129.362 115.566 129.844C114.329 130.312 112.93 130.547 111.367 130.547C107.904 130.547 105.195 129.414 103.242 127.148C101.289 124.87 100.312 122.298 100.312 119.434C100.312 116.738 101.139 114.336 102.793 112.227C104.889 109.544 107.695 108.203 111.211 108.203C114.831 108.203 117.721 109.577 119.883 112.324C121.419 114.264 122.201 116.686 122.227 119.59H103.125C103.177 122.064 103.965 124.095 105.488 125.684C107.012 127.259 108.893 128.047 111.133 128.047C112.214 128.047 113.262 127.858 114.277 127.48C115.306 127.103 116.178 126.602 116.895 125.977C117.611 125.352 118.385 124.342 119.219 122.949ZM119.219 117.227C118.854 115.768 118.32 114.603 117.617 113.73C116.927 112.858 116.009 112.155 114.863 111.621C113.717 111.087 112.513 110.82 111.25 110.82C109.167 110.82 107.376 111.491 105.879 112.832C104.785 113.809 103.958 115.273 103.398 117.227H119.219ZM112.617 98.7891H116.816L111.055 104.805H108.359L112.617 98.7891ZM124.922 108.75H128.203L133.828 116.621L139.453 108.75H142.734L135.469 118.848L143.652 130H140.332L133.828 121.074L127.422 130H124.16L132.207 118.848L124.922 108.75ZM147.52 100C148.145 100 148.678 100.221 149.121 100.664C149.564 101.107 149.785 101.641 149.785 102.266C149.785 102.878 149.564 103.405 149.121 103.848C148.678 104.29 148.145 104.512 147.52 104.512C146.908 104.512 146.38 104.29 145.938 103.848C145.495 103.405 145.273 102.878 145.273 102.266C145.273 101.641 145.495 101.107 145.938 100.664C146.38 100.221 146.908 100 147.52 100ZM146.152 108.75H148.906V130H146.152V108.75ZM175.195 113.164L173.027 114.512C171.152 112.025 168.594 110.781 165.352 110.781C162.76 110.781 160.605 111.615 158.887 113.281C157.181 114.948 156.328 116.973 156.328 119.355C156.328 120.905 156.719 122.363 157.5 123.73C158.294 125.098 159.375 126.159 160.742 126.914C162.122 127.669 163.665 128.047 165.371 128.047C168.496 128.047 171.048 126.803 173.027 124.316L175.195 125.742C174.18 127.266 172.812 128.451 171.094 129.297C169.388 130.13 167.441 130.547 165.254 130.547C161.895 130.547 159.108 129.479 156.895 127.344C154.681 125.208 153.574 122.611 153.574 119.551C153.574 117.493 154.089 115.586 155.117 113.828C156.159 112.057 157.585 110.677 159.395 109.688C161.204 108.698 163.229 108.203 165.469 108.203C166.875 108.203 168.229 108.418 169.531 108.848C170.846 109.277 171.96 109.837 172.871 110.527C173.783 111.217 174.557 112.096 175.195 113.164ZM190.527 108.203C193.796 108.203 196.504 109.388 198.652 111.758C200.605 113.919 201.582 116.478 201.582 119.434C201.582 122.402 200.547 125 198.477 127.227C196.419 129.44 193.77 130.547 190.527 130.547C187.272 130.547 184.609 129.44 182.539 127.227C180.482 125 179.453 122.402 179.453 119.434C179.453 116.491 180.43 113.939 182.383 111.777C184.531 109.395 187.246 108.203 190.527 108.203ZM190.527 110.879C188.262 110.879 186.315 111.719 184.688 113.398C183.06 115.078 182.246 117.109 182.246 119.492C182.246 121.029 182.617 122.461 183.359 123.789C184.102 125.117 185.104 126.146 186.367 126.875C187.63 127.591 189.017 127.949 190.527 127.949C192.038 127.949 193.424 127.591 194.688 126.875C195.951 126.146 196.953 125.117 197.695 123.789C198.438 122.461 198.809 121.029 198.809 119.492C198.809 117.109 197.988 115.078 196.348 113.398C194.72 111.719 192.78 110.879 190.527 110.879Z" fill="url(#paint0_linear_49_1664)"/>
<defs>
<linearGradient id="paint0_linear_49_1664" x1="-7.85216e-07" y1="6.5" x2="198.5" y2="139" gradientUnits="userSpaceOnUse">
<stop stop-color="#CD1332"/>
<stop offset="1" stop-color="#F04D32"/>
</linearGradient>
</defs>
</svg>
