<svg width="43" height="38" viewBox="0 0 43 38" fill="none" xmlns="http://www.w3.org/2000/svg">
<path d="M39.0797 4.02559C36.8001 1.74874 33.7782 0.35908 30.56 0.107634C27.3418 -0.143811 24.1394 0.759537 21.5313 2.6545C18.795 0.62708 15.3893 -0.292251 11.9999 0.0816422C8.61045 0.455535 5.48913 2.09488 3.26446 4.66955C1.03979 7.24422 -0.122976 10.563 0.0103127 13.9575C0.143601 17.352 1.56304 20.5701 3.9828 22.9638L17.3377 36.2891C18.456 37.3855 19.9622 38 21.5313 38C23.1003 38 24.6065 37.3855 25.7248 36.2891L39.0797 22.9638C41.5907 20.4471 43 17.043 43 13.4947C43 9.94641 41.5907 6.54226 39.0797 4.02559ZM36.0475 20.0074L22.6926 33.3113C22.5406 33.4641 22.3597 33.5855 22.1604 33.6683C21.9611 33.7511 21.7472 33.7937 21.5313 33.7937C21.3153 33.7937 21.1015 33.7511 20.9021 33.6683C20.7028 33.5855 20.5219 33.4641 20.37 33.3113L7.01507 19.9431C5.32852 18.2257 4.38411 15.9187 4.38411 13.5161C4.38411 11.1136 5.32852 8.80654 7.01507 7.08913C8.73369 5.3988 11.0516 4.45099 13.4667 4.45099C15.8818 4.45099 18.1997 5.3988 19.9184 7.08913C20.1183 7.28993 20.3561 7.4493 20.6182 7.55807C20.8803 7.66683 21.1613 7.72283 21.4452 7.72283C21.7291 7.72283 22.0102 7.66683 22.2723 7.55807C22.5344 7.4493 22.7722 7.28993 22.9721 7.08913C24.6908 5.3988 27.0086 4.45099 29.4238 4.45099C31.8389 4.45099 34.1568 5.3988 35.8754 7.08913C37.5851 8.78403 38.5606 11.0786 38.5927 13.4812C38.6249 15.8838 37.7112 18.2034 36.0475 19.9431V20.0074Z" fill="white"/>
</svg>
