<svg width="61" height="60" viewBox="0 0 61 60" fill="none" xmlns="http://www.w3.org/2000/svg">
<g clip-path="url(#clip0_178_1923)">
<path d="M30.3 60.0001C30.1291 59.9986 29.9603 59.9624 29.8039 59.8936C29.6475 59.8249 29.5066 59.725 29.39 59.6001C22.22 52.5001 14.85 45.2001 9.3 37.9001C3.03 29.6001 0 22.3001 0 15.6001C0.0264473 11.4432 1.70046 7.46636 4.65489 4.54192C7.60932 1.61749 11.603 -0.0158549 15.76 0.00011603C23.13 0.00011603 26.97 3.50012 30.3 9.40012C33.63 3.60012 37.47 0.00011603 44.84 0.00011603C48.997 -0.0158549 52.9907 1.61749 55.9451 4.54192C58.8995 7.46636 60.5736 11.4432 60.6 15.6001C60.6 22.3001 57.6 29.6001 51.31 37.9001C45.75 45.2001 38.38 52.5001 31.21 59.6001C31.0941 59.726 30.9534 59.8264 30.7968 59.8953C30.6402 59.9641 30.4711 59.9998 30.3 60.0001ZM15.76 2.50012C12.272 2.49471 8.92344 3.86903 6.4449 6.32321C3.96636 8.7774 2.55905 12.1122 2.53001 15.6001C2.53001 29.2001 16.47 43.3001 30.3 57.0001C44.14 43.3001 58.07 29.2001 58.07 15.6001C58.041 12.1122 56.6336 8.7774 54.1551 6.32321C51.6766 3.86903 48.328 2.49471 44.84 2.50012C38.68 2.50012 35.25 5.00011 31.41 12.6001C31.3099 12.8097 31.1526 12.9866 30.9562 13.1105C30.7597 13.2344 30.5322 13.3001 30.3 13.3001C30.068 13.299 29.841 13.2327 29.6448 13.109C29.4486 12.9852 29.291 12.8089 29.19 12.6001C25.35 5.00011 22.02 2.50012 15.76 2.50012Z" fill="white"/>
<path d="M30.2999 46.2994C27.0931 46.258 23.9703 45.2685 21.3247 43.4557C18.6791 41.643 16.6291 39.0879 15.4328 36.1123C14.2366 33.1366 13.9475 29.8736 14.6021 26.734C15.2567 23.5945 16.8256 20.7188 19.1114 18.4692C21.3971 16.2196 24.2974 14.6966 27.447 14.0921C30.5965 13.4876 33.8546 13.8285 36.8108 15.072C39.7669 16.3155 42.2891 18.406 44.0595 21.0801C45.83 23.7542 46.7695 26.8924 46.7599 30.0994C46.7177 34.428 44.9617 38.5633 41.8765 41.5997C38.7914 44.6361 34.6286 46.3261 30.2999 46.2994ZM30.2999 16.2994C27.591 16.3369 24.9535 17.1738 22.7185 18.705C20.4835 20.2363 18.7507 22.3937 17.7376 24.9063C16.7245 27.419 16.4762 30.1749 17.024 32.8282C17.5718 35.4815 18.8912 37.9138 20.8165 39.8198C22.7419 41.7258 25.1874 43.0205 27.846 43.5415C30.5047 44.0625 33.258 43.7864 35.7603 42.748C38.2626 41.7096 40.4024 39.9551 41.911 37.7048C43.4196 35.4545 44.2298 32.8086 44.2399 30.0994C44.2135 26.4233 42.7319 22.9074 40.1194 20.3211C37.5068 17.7348 33.9761 16.2888 30.2999 16.2994Z" fill="white"/>
<path d="M30.3 40.0006C29.9559 39.9955 29.6271 39.8573 29.3828 39.6148C29.1385 39.3724 28.9977 39.0447 28.99 38.7006V28.7006C28.99 28.3532 29.128 28.02 29.3737 27.7743C29.6194 27.5286 29.9526 27.3906 30.3 27.3906C30.6474 27.3906 30.9806 27.5286 31.2263 27.7743C31.472 28.02 31.61 28.3532 31.61 28.7006V38.7006C31.6023 39.0447 31.4615 39.3724 31.2172 39.6148C30.9729 39.8573 30.6441 39.9955 30.3 40.0006Z" fill="white"/>
<path d="M27.37 32.4995H26.77C26.1139 32.4406 25.4831 32.2174 24.9361 31.8503C24.389 31.4833 23.9433 30.9843 23.64 30.3995C23.0319 28.7997 22.694 27.11 22.64 25.3995C22.63 25.2137 22.6607 25.028 22.7297 24.8553C22.7988 24.6826 22.9047 24.5271 23.04 24.3995C23.1685 24.2652 23.3242 24.16 23.4967 24.091C23.6692 24.022 23.8544 23.9908 24.04 23.9995C25.7665 24.0566 27.4721 24.3944 29.09 24.9995C29.6539 25.3233 30.1374 25.7703 30.5045 26.307C30.8716 26.8438 31.1128 27.4565 31.21 28.0995C31.3178 28.6894 31.2833 29.2965 31.1094 29.8705C30.9355 30.4444 30.6272 30.9686 30.21 31.3995C29.4354 32.1102 28.4213 32.503 27.37 32.4995ZM25.3 26.6995C25.3323 27.5226 25.5047 28.3343 25.81 29.0995C25.9527 29.3241 26.1449 29.513 26.372 29.6517C26.5992 29.7904 26.855 29.8752 27.12 29.8995C27.5344 29.9612 27.9576 29.8912 28.33 29.6995C28.4557 29.5294 28.5393 29.332 28.5741 29.1235C28.6088 28.9149 28.5937 28.7011 28.53 28.4995C28.5057 28.2358 28.4209 27.9813 28.2821 27.7559C28.1434 27.5304 27.9544 27.34 27.73 27.1995C27.37 27.0995 26.36 26.8995 25.3 26.6995Z" fill="white"/>
<path d="M33.0299 32.4993C32.059 32.5068 31.1206 32.1499 30.3999 31.4993C30.003 31.0552 29.7079 30.5298 29.5351 29.9598C29.3624 29.3898 29.3163 28.789 29.3999 28.1993C29.4638 27.5459 29.6916 26.9192 30.0622 26.3773C30.4328 25.8354 30.9342 25.3958 31.5199 25.0993C33.1382 24.4955 34.8436 24.1578 36.5699 24.0993C36.7556 24.09 36.9411 24.1209 37.1137 24.1899C37.2863 24.259 37.4419 24.3645 37.5699 24.4993C37.7081 24.6251 37.8167 24.7801 37.8876 24.9531C37.9585 25.126 37.99 25.3126 37.9799 25.4993C37.9211 27.2093 37.5833 28.8982 36.9799 30.4993C36.6474 31.0602 36.1939 31.5399 35.6524 31.9032C35.1109 32.2665 34.4951 32.5043 33.8499 32.5993C33.5827 32.5271 33.3066 32.4934 33.0299 32.4993ZM35.2999 26.6993C34.4709 26.7291 33.6529 26.8981 32.8799 27.1993C32.6531 27.3381 32.4618 27.5278 32.3212 27.7535C32.1806 27.9792 32.0946 28.2345 32.0699 28.4993C32.0104 28.9103 32.0803 29.3297 32.2699 29.6993C32.4432 29.8223 32.6422 29.9042 32.8518 29.9388C33.0615 29.9735 33.2763 29.96 33.4799 29.8993C33.7465 29.8757 34.004 29.7914 34.2329 29.6527C34.4617 29.514 34.6557 29.3247 34.7999 29.0993C34.8499 28.7993 35.0499 27.7993 35.2999 26.6993Z" fill="white"/>
<path d="M24.03 33.8008H21.51V36.3008H24.03V33.8008Z" fill="white"/>
<path d="M39.1799 33.8008H36.6599V36.3008H39.1799V33.8008Z" fill="white"/>
</g>
<defs>
<clipPath id="clip0_178_1923">
<rect width="60.6" height="60" fill="white"/>
</clipPath>
</defs>
</svg>
