<svg width="61" height="60" viewBox="0 0 61 60" fill="none" xmlns="http://www.w3.org/2000/svg">
<g clip-path="url(#clip0_59_10916)">
<path d="M30.24 35C29.2511 35 28.2844 34.7068 27.4621 34.1574C26.6399 33.6079 25.999 32.8271 25.6206 31.9134C25.2422 30.9998 25.1431 29.9944 25.3361 29.0245C25.529 28.0546 26.0052 27.1637 26.7045 26.4645C27.4037 25.7652 28.2946 25.289 29.2645 25.0961C30.2344 24.9031 31.2398 25.0022 32.1534 25.3806C33.067 25.7591 33.8479 26.3999 34.3973 27.2221C34.9467 28.0444 35.24 29.0111 35.24 30C35.24 31.3261 34.7132 32.5978 33.7755 33.5355C32.8378 34.4732 31.5661 35 30.24 35ZM30.24 27.5C29.7469 27.5059 29.2665 27.6575 28.8593 27.9358C28.4522 28.2141 28.1364 28.6066 27.9518 29.0639C27.7672 29.5212 27.7219 30.0229 27.8217 30.5059C27.9216 30.9888 28.162 31.4315 28.5128 31.7781C28.8636 32.1247 29.3091 32.3599 29.7932 32.4539C30.2773 32.548 30.7784 32.4968 31.2335 32.3067C31.6886 32.1166 32.0773 31.7962 32.3507 31.3857C32.6241 30.9753 32.77 30.4932 32.77 30C32.7714 29.6688 32.7066 29.3406 32.5796 29.0347C32.4526 28.7288 32.2658 28.4513 32.0302 28.2185C31.7946 27.9857 31.5149 27.8022 31.2075 27.6789C30.9001 27.5555 30.5712 27.4947 30.24 27.5Z" fill="white"/>
<path d="M52.97 56.3009H39.13C38.7859 56.2958 38.4571 56.1575 38.2128 55.9151C37.9685 55.6727 37.8277 55.345 37.82 55.0009V45.0009C37.8277 44.6568 37.9685 44.3292 38.2128 44.0867C38.4571 43.8443 38.7859 43.706 39.13 43.7009H59.33C59.5532 43.6832 59.7768 43.7303 59.9737 43.8368C60.1707 43.9433 60.3326 44.1044 60.44 44.3009C60.5389 44.5033 60.5904 44.7256 60.5904 44.9509C60.5904 45.1762 60.5389 45.3985 60.44 45.6009L54.08 55.6009C53.9574 55.7917 53.7945 55.9532 53.6027 56.0742C53.4109 56.1951 53.195 56.2725 52.97 56.3009ZM40.34 53.8009H52.24L56.99 46.3009H40.34V53.8009Z" fill="white"/>
<path d="M39.13 59.9995C38.9589 59.9992 38.7898 59.9636 38.6332 59.8947C38.4766 59.8259 38.3359 59.7254 38.22 59.5995L29.33 50.7995C29.2115 50.6815 29.1174 50.5413 29.0533 50.3868C28.9891 50.2324 28.9561 50.0668 28.9561 49.8995C28.9561 49.7323 28.9891 49.5667 29.0533 49.4122C29.1174 49.2578 29.2115 49.1175 29.33 48.9995L38.22 40.2995C38.3953 40.1101 38.6249 39.9795 38.8774 39.9258C39.1299 39.8721 39.3928 39.8978 39.63 39.9995C39.8773 40.0841 40.0902 40.247 40.2364 40.4636C40.3826 40.6802 40.4541 40.9386 40.44 41.1995V58.6995C40.4405 58.9576 40.3636 59.2099 40.2192 59.4239C40.0748 59.6378 39.8696 59.8035 39.63 59.8996C39.4736 59.972 39.3022 60.0062 39.13 59.9995ZM32.06 49.9995L37.82 55.6995V44.2995L32.06 49.9995Z" fill="white"/>
<path d="M59.33 46.3001H49.24C49.0208 46.2948 48.8059 46.2376 48.613 46.1333C48.4201 46.0291 48.2546 45.8806 48.13 45.7001L40.95 34.5001C40.8251 34.3063 40.7587 34.0807 40.7587 33.8501C40.7587 33.6196 40.8251 33.3939 40.95 33.2001C41.066 33.0114 41.2296 32.8565 41.4245 32.7512C41.6194 32.6458 41.8386 32.5937 42.06 32.6001H52.16C52.3791 32.6063 52.5936 32.6638 52.7864 32.768C52.9792 32.8722 53.1449 33.0202 53.27 33.2001L60.44 44.4001C60.5626 44.5948 60.6276 44.8201 60.6276 45.0501C60.6276 45.2801 60.5626 45.5055 60.44 45.7001C60.3149 45.8801 60.1492 46.0281 59.9564 46.1323C59.7637 46.2365 59.5491 46.294 59.33 46.3001ZM49.83 43.8001H56.9L51.35 35.1001H44.24L49.83 43.8001Z" fill="white"/>
<path d="M6.50999 55.0008C6.27776 55.0008 6.05027 54.9351 5.85384 54.8112C5.6574 54.6873 5.50006 54.5103 5.39999 54.3008L0.149993 43.1008C0.0340423 42.9171 -0.0189209 42.7005 -0.000878432 42.484C0.0171641 42.2675 0.105229 42.0628 0.249991 41.9008L7.51999 29.4008C7.60546 29.2496 7.72174 29.1181 7.86127 29.0148C8.00081 28.9114 8.16049 28.8385 8.32999 28.8008C8.66598 28.7368 9.01332 28.7715 9.32999 28.9008L17.91 34.2008C18.0549 34.2795 18.1816 34.3878 18.2817 34.5189C18.3818 34.6499 18.4531 34.8007 18.4909 34.9612C18.5286 35.1217 18.532 35.2884 18.5009 35.4503C18.4697 35.6122 18.4047 35.7658 18.31 35.9008L7.60999 54.4008C7.48585 54.5794 7.3218 54.7266 7.13086 54.8307C6.93992 54.9349 6.72734 54.9931 6.50999 55.0008ZM2.66999 42.6008L6.60999 51.1008L15.4 35.8008L8.92999 31.9008L2.66999 42.6008Z" fill="white"/>
<path d="M20.34 39.4993C20.0446 39.5068 19.7577 39.3993 19.54 39.1993L16.41 36.5993L7.72003 31.0993L4.49003 29.8993C4.23748 29.7925 4.02411 29.6103 3.87911 29.3776C3.73411 29.1449 3.66458 28.8731 3.68003 28.5993C3.69528 28.3291 3.80296 28.0723 3.98503 27.872C4.16709 27.6718 4.41247 27.5402 4.68003 27.4993L17.1 24.9993C17.4188 24.9459 17.7463 25.0069 18.0245 25.1716C18.3026 25.3363 18.5136 25.5941 18.62 25.8993L21.55 37.8993C21.603 38.167 21.573 38.4445 21.464 38.6947C21.355 38.9449 21.1722 39.1558 20.94 39.2993C20.861 39.3749 20.7662 39.432 20.6625 39.4666C20.5587 39.5012 20.4486 39.5124 20.34 39.4993ZM9.24003 29.1993L17.72 34.5993L17.82 34.6993L18.12 34.9993L16.41 27.7993L9.24003 29.1993Z" fill="white"/>
<path d="M19.94 54.9995H6.51001C6.28665 55.0185 6.06259 54.9719 5.86538 54.8653C5.66817 54.7587 5.50642 54.5968 5.40002 54.3995C5.30107 54.1971 5.24963 53.9748 5.24963 53.7495C5.24963 53.5242 5.30107 53.3019 5.40002 53.0995L10.75 44.2995C10.8574 44.103 11.0193 43.9418 11.2163 43.8353C11.4133 43.7289 11.6368 43.6817 11.86 43.6995H25.29C25.5134 43.6804 25.7374 43.727 25.9346 43.8336C26.1319 43.9402 26.2936 44.1021 26.4 44.2995C26.5035 44.5005 26.5575 44.7234 26.5575 44.9495C26.5575 45.1756 26.5035 45.3984 26.4 45.5995L21.05 54.3995C20.9249 54.5794 20.7592 54.7274 20.5664 54.8316C20.3736 54.9358 20.1591 54.9933 19.94 54.9995ZM8.73001 52.4995H19.24L23.08 46.1995H12.47L8.73001 52.4995Z" fill="white"/>
<path d="M41.55 26.2999C41.409 26.3148 41.2673 26.2794 41.15 26.1999L34.38 23.9999L29.38 22.3999C29.1474 22.309 28.9417 22.1603 28.7825 21.9678C28.6233 21.7753 28.5157 21.5454 28.47 21.2999C28.4516 21.0513 28.5098 20.803 28.6367 20.5885C28.7636 20.3739 28.9532 20.2034 29.18 20.0999L44.94 12.0999C45.1667 11.9829 45.4243 11.9392 45.6769 11.9751C45.9295 12.0109 46.1648 12.1244 46.35 12.2999C46.5293 12.4592 46.6614 12.6647 46.7319 12.8939C46.8025 13.1231 46.8087 13.3674 46.75 13.5999L42.92 25.3999C42.7853 25.6526 42.5893 25.8675 42.3499 26.0247C42.1105 26.182 41.8355 26.2766 41.55 26.2999ZM35.09 21.5999L40.64 23.3999L43.17 15.6999L32.87 20.8999L35.09 21.5999Z" fill="white"/>
<path d="M21.56 23.8005C21.3385 23.8069 21.1193 23.7548 20.9245 23.6495C20.7296 23.5441 20.5659 23.3893 20.45 23.2005L15.24 14.4005C15.141 14.1981 15.0896 13.9758 15.0896 13.7505C15.0896 13.5252 15.141 13.3029 15.24 13.1005L22.72 0.600531C22.8359 0.411771 22.9996 0.256896 23.1945 0.151557C23.3893 0.0462174 23.6085 -0.00586834 23.83 0.000525096C24.0619 0.00169459 24.2889 0.0679152 24.4852 0.191657C24.6814 0.315398 24.839 0.49171 24.94 0.700537L29.69 10.1005C29.788 10.2853 29.8393 10.4913 29.8393 10.7005C29.8393 10.9097 29.788 11.1157 29.69 11.3005L22.69 23.1005C22.5724 23.2957 22.4108 23.4607 22.2181 23.5823C22.0253 23.7038 21.8068 23.7786 21.58 23.8005H21.56ZM17.82 13.7005L21.56 20.0005L27.11 10.6005L23.68 3.80051L17.82 13.7005Z" fill="white"/>
<path d="M33.07 20.7003C32.9291 20.7152 32.7874 20.6798 32.67 20.6003C32.5136 20.5615 32.3681 20.4872 32.245 20.3831C32.1219 20.2791 32.0244 20.1481 31.96 20.0003L22.67 1.80025C22.563 1.6137 22.5152 1.39901 22.5331 1.18468C22.5509 0.970343 22.6336 0.766523 22.77 0.600265C22.8764 0.40295 23.0382 0.241044 23.2354 0.134445C23.4326 0.0278457 23.6567 -0.018804 23.88 0.000259129H35.7C35.9315 0.00371052 36.1575 0.0708672 36.3533 0.194351C36.5492 0.317835 36.7072 0.492884 36.81 0.700271L43.17 14.4003C43.2365 14.5451 43.2735 14.7018 43.2787 14.8612C43.284 15.0205 43.2574 15.1792 43.2006 15.3282C43.1438 15.4772 43.058 15.6133 42.948 15.7287C42.838 15.8441 42.7061 15.9364 42.56 16.0003L33.56 20.6003C33.4094 20.6792 33.2395 20.7139 33.07 20.7003ZM25.9 2.50026L33.57 17.8002L40.34 14.4003L34.89 2.50026H25.9Z" fill="white"/>
</g>
<defs>
<clipPath id="clip0_59_10916">
<rect width="60.63" height="60" fill="white"/>
</clipPath>
</defs>
</svg>
