<svg width="61" height="61" viewBox="0 0 61 61" fill="none" xmlns="http://www.w3.org/2000/svg">
<g clip-path="url(#clip0_178_1830)">
<path d="M30.2001 46.399C26.9933 46.3576 23.8704 45.3682 21.2249 43.5554C18.5793 41.7426 16.5293 39.1875 15.333 36.2119C14.1367 33.2363 13.8477 29.9732 14.5022 26.8336C15.1568 23.6941 16.7258 20.8184 19.0115 18.5688C21.2972 16.3192 24.1975 14.7962 27.3471 14.1917C30.4967 13.5872 33.7547 13.9281 36.7109 15.1716C39.6671 16.4151 42.1892 18.5056 43.9597 21.1797C45.7301 23.8538 46.6697 26.992 46.6601 30.1991C46.6178 34.5276 44.8618 38.6629 41.7767 41.6993C38.6915 44.7358 34.5287 46.4257 30.2001 46.399ZM30.2001 16.399C27.4911 16.4365 24.8536 17.2734 22.6186 18.8046C20.3837 20.3359 18.6509 22.4933 17.6378 25.0059C16.6246 27.5186 16.3764 30.2746 16.9242 32.9278C17.4719 35.5811 18.7913 38.0134 20.7167 39.9194C22.642 41.8254 25.0875 43.1202 27.7462 43.6411C30.4048 44.1621 33.1581 43.886 35.6604 42.8476C38.1627 41.8092 40.3025 40.0547 41.8111 37.8044C43.3198 35.5541 44.13 32.9082 44.1401 30.1991C44.1137 26.523 42.632 23.007 40.0195 20.4207C37.407 17.8344 33.8763 16.3884 30.2001 16.399Z" fill="white"/>
<path d="M36.56 60.1H23.94C23.5959 60.0949 23.2671 59.9566 23.0228 59.7142C22.7785 59.4718 22.6377 59.1441 22.63 58.8V52.6C22.53 52.6 22.43 52.5 22.32 52.5H22.2C22.1 52.5 21.9 52.4 21.8 52.4C21.7 52.4 21.7 52.4 21.6 52.3C21.5 52.2 21.4 52.2 21.29 52.2C21.18 52.2 21.09 52.1 20.99 52.1C20.9142 52.0894 20.8439 52.0543 20.79 52C20.69 52 20.59 51.9 20.49 51.9L20.28 51.8C20.18 51.7 19.98 51.7 19.88 51.6L19.78 51.5C19.68 51.5 19.58 51.4 19.48 51.4L15.03 55.8C14.79 56.04 14.4644 56.1748 14.125 56.1748C13.7856 56.1748 13.46 56.04 13.22 55.8L4.32999 47C4.09551 46.755 3.95099 46.4377 3.92 46.1C3.92046 45.9295 3.95727 45.761 4.02797 45.6058C4.09867 45.4506 4.20163 45.3123 4.32999 45.2L8.77 40.8C8.77 40.7 8.67 40.6 8.67 40.5L8.57 40.4C8.47 40.3 8.47 40.1 8.37 40L8.27 39.8C8.27 39.7 8.17 39.6 8.17 39.5C8.17 39.4 8.06 39.3 8.06 39.2C8.06 39.1 7.96 39 7.96 38.9C7.96 38.8 7.86 38.7 7.86 38.6C7.86 38.5 7.85999 38.5 7.75999 38.4C7.65999 38.3 7.66 38.1 7.66 38V37.9C7.66 37.8 7.56 37.7 7.56 37.6H1.32C0.974132 37.5975 0.642847 37.4604 0.396416 37.2177C0.149984 36.975 0.0077926 36.6458 0 36.3V23.8C0.0077926 23.4542 0.149984 23.1251 0.396416 22.8824C0.642847 22.6397 0.974132 22.5025 1.32 22.5H7.48C7.48 22.4 7.57999 22.3 7.57999 22.2V22.1C7.57999 22 7.68 21.8 7.68 21.7C7.68 21.6 7.68 21.6 7.78 21.5C7.88 21.4 7.88 21.3 7.88 21.2C7.88 21.1 7.98 21 7.98 20.9C7.98 20.8 8.07999 20.7 8.07999 20.6C8.07999 20.5 8.18999 20.4 8.18999 20.3L8.28999 20.1C8.38999 20 8.39 19.8 8.49 19.7L8.59 19.6C8.59 19.5 8.68999 19.4 8.68999 19.3L4.25 14.9C4.01209 14.6573 3.86697 14.3388 3.84 14C3.84046 13.8295 3.87727 13.661 3.94797 13.5058C4.01867 13.3506 4.12163 13.2123 4.25 13.1L13.13 4.3C13.3808 4.06975 13.7008 3.92909 14.04 3.90001C14.2112 3.8997 14.3805 3.93511 14.5372 4.00398C14.6939 4.07286 14.8345 4.17368 14.95 4.3L19.4 8.70001C19.5 8.70001 19.6 8.60001 19.7 8.60001L19.8 8.5C19.9 8.4 20.1 8.4 20.2 8.3C20.3 8.2 20.3 8.30001 20.41 8.20001C20.51 8.20001 20.61 8.10001 20.71 8.10001C20.81 8.10001 20.91 8 21.01 8C21.11 8 21.21 7.90001 21.31 7.90001C21.41 7.90001 21.52 7.8 21.62 7.8C21.72 7.8 21.72 7.80001 21.82 7.70001C21.92 7.60001 22.12 7.60001 22.22 7.60001H22.32C22.43 7.60001 22.53 7.5 22.63 7.5V1.3C22.6377 0.955924 22.7785 0.628246 23.0228 0.385818C23.2671 0.143391 23.5959 0.0050887 23.94 0H36.56C36.9059 0.00251278 37.2371 0.139672 37.4836 0.38237C37.73 0.625068 37.8722 0.954214 37.88 1.3V7.60001C37.98 7.60001 38.08 7.70001 38.18 7.70001H38.28C38.38 7.70001 38.58 7.8 38.69 7.8C38.8 7.8 38.79 7.80001 38.89 7.90001C38.99 8.00001 39.09 8 39.19 8C39.2658 8.01057 39.3361 8.0457 39.39 8.10001C39.49 8.10001 39.59 8.20001 39.7 8.20001C39.81 8.20001 39.9 8.3 40 8.3C40.1 8.3 40.1 8.40001 40.2 8.40001C40.3 8.40001 40.5 8.50001 40.6 8.60001L40.71 8.70001C40.81 8.70001 40.91 8.8 41.01 8.8L45.45 4.40001C45.6917 4.15941 46.0189 4.02434 46.36 4.02434C46.7011 4.02434 47.0283 4.15941 47.27 4.40001L56.16 13.2C56.3915 13.446 56.5325 13.7633 56.56 14.1C56.5595 14.2696 56.5237 14.4372 56.4548 14.5922C56.386 14.7471 56.2856 14.886 56.16 15L51.71 19.4C51.71 19.5 51.81 19.6 51.81 19.7L51.92 19.8C52.02 19.9 52.02 20.1 52.12 20.2C52.1273 20.2768 52.1629 20.3481 52.22 20.4C52.22 20.5 52.32 20.6 52.32 20.7C52.32 20.8 52.42 20.9 52.42 21C52.42 21.1 52.52 21.2 52.52 21.3C52.52 21.4 52.62 21.5 52.62 21.6C52.62 21.7 52.62 21.7 52.72 21.8C52.82 21.9 52.82 22.1 52.82 22.2V22.3C52.82 22.4 52.93 22.5 52.93 22.6H59.2C59.5441 22.6051 59.8729 22.7434 60.1172 22.9858C60.3615 23.2282 60.5023 23.5559 60.51 23.9V36.4C60.5023 36.7441 60.3615 37.0718 60.1172 37.3142C59.8729 37.5566 59.5441 37.6949 59.2 37.7H52.94C52.94 37.8 52.83 37.9 52.83 38V38.1C52.83 38.2 52.73 38.4 52.73 38.5C52.73 38.6 52.73 38.6 52.63 38.7C52.63 38.8 52.53 38.9 52.53 39C52.5194 39.0758 52.4843 39.1461 52.43 39.2C52.43 39.3 52.33 39.4 52.33 39.5C52.33 39.6 52.23 39.7 52.23 39.8C52.23 39.9 52.23 39.9 52.13 40C52.03 40.1 52.03 40.3 51.93 40.4L51.82 40.5C51.82 40.6 51.72 40.7 51.72 40.8L56.17 45.2C56.2885 45.318 56.3826 45.4583 56.4467 45.6127C56.5109 45.7672 56.544 45.9328 56.544 46.1C56.544 46.2673 56.5109 46.4329 56.4467 46.5873C56.3826 46.7418 56.2885 46.882 56.17 47L47.28 55.8C47.0301 56.0316 46.7096 56.1724 46.37 56.2C46.1989 56.1997 46.0298 56.164 45.8732 56.0952C45.7166 56.0263 45.5759 55.9258 45.46 55.8L41.02 51.4C40.92 51.4 40.82 51.5 40.72 51.5L40.61 51.6C40.51 51.7 40.31 51.7 40.21 51.8L40.01 51.9C39.91 51.9 39.81 52 39.71 52C39.6306 52.0084 39.5566 52.0437 39.5 52.1C39.4242 52.1106 39.3539 52.1457 39.3 52.2C39.2 52.2 39.1 52.3 39 52.3C38.9 52.3 38.9 52.3 38.8 52.4C38.7 52.5 38.49 52.5 38.39 52.5H38.29C38.1313 52.565 37.9615 52.599 37.79 52.6V58.8C37.7857 59.1316 37.6568 59.4494 37.4289 59.6903C37.201 59.9311 36.8908 60.0774 36.56 60.1ZM25.2 57.6H35.3V51.7C35.3084 51.4303 35.4005 51.1698 35.5635 50.9548C35.7266 50.7398 35.9525 50.5808 36.21 50.5H36.31C36.51 50.5 36.61 50.4 36.82 50.4H36.92C37.02 50.4 37.22 50.3 37.32 50.3H37.42C37.52 50.3 37.62 50.2 37.73 50.2C37.84 50.2 37.83 50.2 37.93 50.1C38.03 50 38.13 50 38.23 50C38.33 50 38.33 49.9 38.43 49.9C38.53 49.9 38.53 49.8 38.63 49.8C38.73 49.8 38.84 49.7 38.94 49.7L39.14 49.6C39.24 49.5 39.34 49.5 39.44 49.4L39.54 49.3C39.64 49.2 39.85 49.2 39.95 49.1H40.05C40.15 49 40.35 49 40.45 48.9L40.55 48.8C40.7891 48.6581 41.069 48.6007 41.3446 48.6369C41.6203 48.6732 41.8757 48.8011 42.07 49L46.31 53.2L53.48 46.1L49.2 41.9C48.9978 41.712 48.8673 41.4595 48.8309 41.1859C48.7944 40.9122 48.8542 40.6344 49 40.4L49.1 40.3C49.2 40.2 49.2 40 49.3 39.9V39.8C49.4 39.7 49.4 39.5 49.5 39.4L49.6 39.3C49.7 39.2 49.7 39.1 49.8 39C49.7999 38.986 49.8028 38.9721 49.8084 38.9593C49.8141 38.9464 49.8224 38.9349 49.8327 38.9255C49.8431 38.9161 49.8553 38.9089 49.8687 38.9045C49.882 38.9001 49.896 38.8986 49.91 38.9C49.91 38.8 50.01 38.7 50.01 38.6C50.01 38.5 50.11 38.5 50.11 38.4C50.11 38.3 50.21 38.3 50.21 38.2C50.21 38.1 50.31 38 50.31 37.9C50.31 37.8735 50.3205 37.8481 50.3393 37.8293C50.358 37.8105 50.3835 37.8 50.41 37.8C50.41 37.7 50.51 37.6 50.51 37.4V37.3C50.51 37.2 50.61 37 50.61 36.9V36.8C50.6531 36.6354 50.6865 36.4685 50.71 36.3V36.2C50.7962 35.9428 50.9596 35.7184 51.1779 35.5574C51.3962 35.3964 51.6588 35.3065 51.93 35.3H57.93V25.3H51.93C51.6588 25.2935 51.3962 25.2037 51.1779 25.0426C50.9596 24.8816 50.7962 24.6572 50.71 24.4V24.3C50.71 24.1 50.61 24 50.61 23.8V23.7C50.61 23.6 50.51 23.4 50.51 23.3V23.2C50.51 23.1 50.41 23 50.41 22.8C50.41 22.7735 50.3995 22.748 50.3807 22.7293C50.362 22.7105 50.3365 22.7 50.31 22.7C50.31 22.6 50.21 22.5 50.21 22.4C50.1994 22.3242 50.1643 22.254 50.11 22.2C50.11 22.1 50.01 22.1 50.01 22C50.01 21.9 49.91 21.8 49.91 21.7C49.91 21.6735 49.8995 21.6481 49.8807 21.6293C49.862 21.6105 49.8365 21.6 49.81 21.6C49.7 21.5 49.7 21.4 49.6 21.3V21.2C49.5 21.1 49.5 20.9 49.4 20.8V20.7C49.3 20.6 49.3 20.4 49.2 20.3L49.1 20.2C48.9579 19.9645 48.9002 19.6876 48.9366 19.4149C48.9729 19.1422 49.1011 18.8901 49.3 18.7L53.54 14.5L46.37 7.40001L42.2 11.6C42.0074 11.7981 41.7536 11.9256 41.4797 11.9619C41.2057 11.9982 40.9276 11.9411 40.69 11.8L40.58 11.7C40.48 11.6 40.28 11.6 40.18 11.5H40.08C39.98 11.4 39.78 11.4 39.68 11.3L39.57 11.2C39.47 11.1 39.37 11.1 39.27 11C39.17 10.9 39.17 11 39.07 10.9C38.87 10.6 38.77 10.6 38.67 10.6C38.5906 10.5916 38.5166 10.5563 38.46 10.5C38.3842 10.4894 38.3139 10.4543 38.26 10.4C38.16 10.4 38.06 10.3 37.96 10.3C37.86 10.3 37.86 10.3 37.76 10.2C37.66 10.1 37.55 10.1 37.35 10.1H37.25C37.15 10.1 36.95 10 36.85 10H36.75C36.582 9.95706 36.4118 9.92368 36.24 9.90001H36.2C35.9425 9.81918 35.7166 9.66023 35.5535 9.44521C35.3905 9.23018 35.2984 8.96974 35.29 8.70001V2.60001H25.2V8.5C25.1931 8.77013 25.1016 9.03127 24.9383 9.24658C24.775 9.46189 24.5482 9.6205 24.29 9.70001H24.19C23.99 9.70001 23.89 9.8 23.69 9.8H23.59C23.49 9.8 23.28 9.90001 23.18 9.90001H23.08C22.98 9.90001 22.88 10 22.68 10C22.48 10 22.58 10 22.48 10.1C22.38 10.2 22.27 10.2 22.17 10.2C21.9703 10.3 21.9703 10.3 21.7703 10.4C21.67 10.4 21.57 10.5 21.47 10.5C21.47 10.5 21.36 10.5 21.36 10.6C21.36 10.7 21.16 10.7 21.06 10.8H20.96C20.86 10.9 20.66 10.9 20.56 11H20.46C20.35 11.1 20.15 11.1 20.05 11.2L19.95 11.3C19.7124 11.4411 19.4343 11.4982 19.1603 11.4619C18.8864 11.4256 18.6326 11.2981 18.44 11.1L14.19 6.90001L7.02 14L11.2 18.2C11.3989 18.3901 11.5271 18.6422 11.5634 18.9149C11.5998 19.1876 11.5421 19.4645 11.4 19.7L11.3 19.8C11.2 19.9 11.2 20.1 11.09 20.2V20.3C10.99 20.4 10.99 20.6 10.89 20.7L10.79 20.8C10.69 20.9 10.69 21 10.59 21.1L10.49 21.3C10.49 21.4 10.39 21.5 10.39 21.6C10.2898 21.7992 10.2898 21.7992 10.1897 21.9994C10.19 22.1 10.08 22.2 10.08 22.3C10.08 22.4 10.08 22.4 9.98 22.5C9.88 22.6 9.88 22.7 9.88 22.9V23C9.88 23.1 9.78 23.3 9.78 23.4V23.5C9.78 23.7 9.68 23.8 9.68 24V24.1C9.5969 24.3572 9.4357 24.5821 9.21883 24.7434C9.00197 24.9047 8.74021 24.9944 8.46999 25H2.43V35H8.43C8.70022 35.0056 8.96197 35.0953 9.17883 35.2566C9.3957 35.4179 9.5569 35.6428 9.64 35.9V36C9.64 36.2 9.74 36.3 9.74 36.5V36.6C9.74 36.7 9.84 36.9 9.84 37V37.1C9.84 37.2 9.93999 37.3 9.93999 37.5C9.93999 37.7 9.93999 37.6 10.04 37.7C10.14 37.8 10.14 37.9 10.14 38C10.1525 38.0774 10.1914 38.148 10.25 38.2C10.2606 38.2758 10.2957 38.3461 10.35 38.4C10.35 38.5 10.45 38.6 10.45 38.7L10.55 38.9C10.65 39 10.65 39.1 10.75 39.2V39.3C10.85 39.4 10.85 39.6 10.95 39.7V39.8C11.05 39.9 11.05 40.1 11.15 40.2L11.26 40.3C11.4027 40.5361 11.4598 40.8141 11.4216 41.0873C11.3833 41.3605 11.2521 41.6122 11.05 41.8L6.81 46L13.98 53.1L18.2 48.9C18.3943 48.7011 18.6497 48.5732 18.9254 48.537C19.201 48.5007 19.4809 48.5581 19.72 48.7L19.82 48.8C19.9303 48.9053 20.0696 48.975 20.22 49C20.32 49.1 20.53 49.1 20.63 49.2L20.73 49.3C20.83 49.4 20.93 49.4 21.03 49.5L21.23 49.6C21.33 49.6 21.44 49.7 21.54 49.7C21.64 49.7 21.64 49.8 21.74 49.8C21.8158 49.8106 21.8861 49.8457 21.94 49.9C22.04 49.9 22.14 50 22.24 50C22.34 50 22.34 50 22.45 50.1C22.56 50.2 22.65 50.2 22.85 50.2H22.95C23.05 50.2 23.25 50.3 23.35 50.3H23.46C23.56 50.3 23.76 50.4 23.86 50.4H24.06C24.3183 50.4795 24.545 50.6381 24.7083 50.8534C24.8716 51.0687 24.9631 51.3299 24.97 51.6V57.6H25.2Z" fill="white"/>
<path d="M30.1999 40.1002C29.8558 40.0951 29.527 39.9569 29.2827 39.7144C29.0384 39.472 28.8976 39.1443 28.8899 38.8002V28.8002C28.8899 28.4528 29.0279 28.1196 29.2736 27.8739C29.5193 27.6283 29.8525 27.4902 30.1999 27.4902C30.5473 27.4902 30.8805 27.6283 31.1262 27.8739C31.3719 28.1196 31.5099 28.4528 31.5099 28.8002V38.8002C31.5022 39.1443 31.3614 39.472 31.1171 39.7144C30.8728 39.9569 30.544 40.0951 30.1999 40.1002Z" fill="white"/>
<path d="M27.2699 32.5991H26.6699C26.0138 32.5402 25.383 32.317 24.836 31.95C24.2889 31.5829 23.8432 31.0839 23.5399 30.4991C22.9318 28.8993 22.5939 27.2096 22.5399 25.4991C22.5299 25.3133 22.5606 25.1276 22.6296 24.9549C22.6987 24.7822 22.8046 24.6267 22.9399 24.4991C23.0684 24.3648 23.2241 24.2596 23.3966 24.1906C23.5691 24.1216 23.7543 24.0904 23.9399 24.0991C25.6664 24.1562 27.372 24.494 28.9899 25.0991C29.5538 25.4229 30.0374 25.8699 30.4044 26.4066C30.7715 26.9434 31.0127 27.5561 31.1099 28.1991C31.2177 28.789 31.1833 29.3962 31.0093 29.9701C30.8354 30.544 30.5271 31.0682 30.1099 31.4991C29.3353 32.2098 28.3212 32.6026 27.2699 32.5991ZM25.1999 26.7991C25.2322 27.6223 25.4046 28.4339 25.7099 29.1991C25.8526 29.4237 26.0448 29.6126 26.272 29.7513C26.4991 29.89 26.7549 29.9748 27.0199 29.9991C27.4343 30.0608 27.8575 29.9908 28.2299 29.7991C28.3556 29.629 28.4392 29.4316 28.474 29.2231C28.5087 29.0145 28.4936 28.8007 28.4299 28.5991C28.4056 28.3354 28.3208 28.0809 28.182 27.8555C28.0433 27.63 27.8543 27.4396 27.6299 27.2991C27.2699 27.1991 26.2599 26.9991 25.1999 26.7991Z" fill="white"/>
<path d="M32.9301 32.6008C31.9592 32.6083 31.0207 32.2515 30.3001 31.6008C29.9031 31.1568 29.608 30.6314 29.4353 30.0614C29.2626 29.4914 29.2164 28.8905 29.3001 28.3008C29.3639 27.6474 29.5917 27.0207 29.9623 26.4788C30.3329 25.9369 30.8343 25.4974 31.4201 25.2008C33.0384 24.5971 34.7438 24.2594 36.4701 24.2008C36.6557 24.1915 36.8412 24.2224 37.0138 24.2915C37.1864 24.3605 37.342 24.466 37.4701 24.6008C37.6083 24.7267 37.7168 24.8817 37.7877 25.0546C37.8586 25.2276 37.8902 25.4142 37.8801 25.6008C37.8212 27.3108 37.4834 28.9997 36.8801 30.6008C36.5476 31.1618 36.094 31.6414 35.5525 32.0047C35.011 32.368 34.3952 32.6059 33.7501 32.7008C33.4829 32.6287 33.2068 32.595 32.9301 32.6008ZM35.1501 26.8008C34.3211 26.8307 33.503 26.9997 32.7301 27.3008C32.5033 27.4396 32.312 27.6294 32.1714 27.8551C32.0308 28.0807 31.9447 28.3361 31.9201 28.6008C31.8605 29.0119 31.9304 29.4313 32.1201 29.8008C32.2933 29.9238 32.4924 30.0057 32.702 30.0404C32.9116 30.075 33.1264 30.0615 33.3301 30.0008C33.5966 29.9773 33.8542 29.8929 34.083 29.7542C34.3119 29.6155 34.5058 29.4262 34.6501 29.2008C34.7501 28.9008 34.9501 27.9008 35.2001 26.8008H35.1501Z" fill="white"/>
<path d="M23.9299 33.9004H21.4099V36.4004H23.9299V33.9004Z" fill="white"/>
<path d="M39.0801 33.9004H36.5601V36.4004H39.0801V33.9004Z" fill="white"/>
</g>
<defs>
<clipPath id="clip0_178_1830">
<rect width="60.5" height="60.1" fill="white"/>
</clipPath>
</defs>
</svg>
