<svg width="39" height="61" viewBox="0 0 39 61" fill="none" xmlns="http://www.w3.org/2000/svg">
<path d="M19.0819 60.1408C18.7377 60.1357 18.409 59.9974 18.1647 59.755C17.9204 59.5125 17.7796 59.1848 17.7719 58.8408V37.6408C17.8006 37.3118 17.9515 37.0055 18.195 36.7824C18.4384 36.5593 18.7566 36.4355 19.0869 36.4355C19.4171 36.4355 19.7353 36.5593 19.9787 36.7824C20.2222 37.0055 20.3731 37.3118 20.4019 37.6408V58.8408C20.3941 59.1865 20.2519 59.5157 20.0054 59.7584C19.759 60.0011 19.4277 60.1383 19.0819 60.1408Z" fill="white"/>
<path d="M11.2118 56.6405C10.7031 56.657 10.194 56.6235 9.69185 56.5405C8.20828 56.3865 6.78315 55.8794 5.53572 55.0617C4.2883 54.244 3.25485 53.1395 2.52184 51.8405C0.701837 48.6405 0.00184764 39.9405 0.00184764 38.9405C-0.00814121 38.7547 0.0224584 38.5691 0.0915388 38.3964C0.160619 38.2237 0.266514 38.0681 0.401842 37.9405C0.530262 37.8062 0.685976 37.701 0.858476 37.632C1.03098 37.563 1.21625 37.5318 1.40184 37.5405C2.40184 37.6405 11.2018 38.2405 14.4018 40.0405C15.6791 40.7875 16.7702 41.8146 17.593 43.0444C18.4158 44.2743 18.9488 45.6748 19.1518 47.1405C19.3686 48.4295 19.3019 49.7503 18.9566 51.0109C18.6112 52.2716 17.9953 53.4419 17.1518 54.4405C15.5255 55.9055 13.4001 56.6926 11.2118 56.6405ZM2.73184 40.2405C3.04184 43.3405 3.73184 48.6405 4.85184 50.6405C5.40436 51.5767 6.16737 52.3714 7.08037 52.9616C7.99337 53.5517 9.03129 53.9211 10.1118 54.0405C11.0287 54.2243 11.9748 54.2031 12.8824 53.9784C13.7901 53.7536 14.6368 53.3309 15.3618 52.7405C15.9549 52.0267 16.3804 51.189 16.6071 50.2892C16.8338 49.3893 16.8559 48.45 16.6718 47.5405C16.5472 46.4657 16.1718 45.4352 15.5761 44.532C14.9803 43.6288 14.1808 42.8782 13.2418 42.3405C11.2118 41.2405 5.85184 40.5405 2.73184 40.2405Z" fill="white"/>
<path d="M26.8618 56.6401C24.7138 56.7023 22.6214 55.9524 21.0018 54.5401C20.1438 53.5502 19.5188 52.3806 19.1727 51.1172C18.8265 49.8539 18.7682 48.529 19.0018 47.2401C19.1637 45.7617 19.6801 44.3443 20.507 43.1082C21.334 41.8721 22.4471 40.8539 23.7518 40.1401C26.9818 38.3401 35.7518 37.6401 36.7518 37.6401C36.9374 37.6314 37.1227 37.6627 37.2952 37.7317C37.4677 37.8007 37.6234 37.9058 37.7518 38.0401C37.8871 38.1677 37.993 38.3233 38.0621 38.496C38.1312 38.6687 38.1618 38.8543 38.1518 39.0401C38.0518 40.0401 37.4518 48.7401 35.6318 51.9401C34.867 53.2122 33.8251 54.2955 32.5837 55.1092C31.3423 55.923 29.9334 56.4462 28.4618 56.6401H26.8618ZM35.4518 40.2401C32.3118 40.5401 26.9618 41.2401 24.9418 42.3401C24.0013 42.8759 23.2005 43.6261 22.6046 44.5296C22.0086 45.4332 21.6342 46.4646 21.5118 47.5401C21.3277 48.4496 21.3499 49.3889 21.5766 50.2888C21.8033 51.1887 22.2288 52.0263 22.8218 52.7401C23.5469 53.3305 24.3936 53.7533 25.3012 53.978C26.2089 54.2028 27.155 54.224 28.0718 54.0401C29.1506 53.9192 30.1865 53.5492 31.0977 52.9591C32.0088 52.369 32.7703 51.5751 33.3218 50.6401C34.4418 48.6401 35.1418 43.3401 35.4518 40.2401Z" fill="white"/>
<path d="M21.5118 38.9398H16.9618C14.2988 38.9452 11.7418 37.8965 9.84941 36.0229C7.95701 34.1492 6.88295 31.6028 6.86182 28.9398V20.1398C6.86961 19.7941 7.01179 19.4649 7.25822 19.2222C7.50466 18.9795 7.83594 18.8424 8.18181 18.8398H30.4018C30.7494 18.8398 31.0832 18.9758 31.3318 19.2187C31.5804 19.4617 31.724 19.7923 31.7318 20.1398V28.9398C31.6692 31.6104 30.5655 34.1508 28.6562 36.019C26.7469 37.8872 24.1831 38.9354 21.5118 38.9398ZM9.39182 21.4398V28.9398C9.41545 30.9337 10.2228 32.8383 11.6393 34.2417C13.0559 35.6451 14.9678 36.4347 16.9618 36.4398H21.5118C23.5058 36.4347 25.4178 35.6451 26.8343 34.2417C28.2508 32.8383 29.0582 30.9337 29.0818 28.9398V21.4398H9.39182Z" fill="white"/>
<path d="M31.0018 21.4406H7.00182C5.83486 21.4406 4.71571 20.9771 3.89055 20.1519C3.06539 19.3267 2.60181 18.2076 2.60181 17.0406C2.60181 15.8737 3.06539 14.7545 3.89055 13.9294C4.71571 13.1042 5.83486 12.6406 7.00182 12.6406H31.0018C32.1688 12.6406 33.2879 13.1042 34.1131 13.9294C34.9382 14.7545 35.4018 15.8737 35.4018 17.0406C35.4018 18.2076 34.9382 19.3267 34.1131 20.1519C33.2879 20.9771 32.1688 21.4406 31.0018 21.4406ZM7.00182 15.1406C6.75099 15.1393 6.50236 15.1874 6.27013 15.2822C6.03789 15.377 5.82659 15.5165 5.6483 15.693C5.47001 15.8694 5.32822 16.0792 5.23102 16.3105C5.13382 16.5417 5.08313 16.7898 5.08182 17.0406C5.0733 17.2941 5.11729 17.5467 5.21103 17.7824C5.30477 18.0181 5.44623 18.2319 5.62653 18.4103C5.80683 18.5887 6.02207 18.7279 6.25874 18.8192C6.49541 18.9104 6.7484 18.9518 7.00182 18.9406H31.0018C31.2526 18.9419 31.5013 18.8938 31.7335 18.7991C31.9657 18.7043 32.177 18.5647 32.3553 18.3883C32.5336 18.2118 32.6754 18.002 32.7726 17.7708C32.8698 17.5396 32.9205 17.2915 32.9218 17.0406C32.9288 16.7875 32.8838 16.5356 32.7896 16.3006C32.6953 16.0656 32.5538 15.8524 32.3738 15.6743C32.1938 15.4962 31.9792 15.3569 31.7432 15.2651C31.5072 15.1733 31.2549 15.1309 31.0018 15.1406H7.00182Z" fill="white"/>
<path d="M13.9318 15.14H8.93182C8.5877 15.1349 8.25894 14.9966 8.01465 14.7542C7.77036 14.5118 7.62955 14.1841 7.62183 13.84V3.84C7.62183 2.82157 8.0264 1.84485 8.74654 1.12471C9.46668 0.40457 10.4434 0 11.4618 0C12.4803 0 13.457 0.40457 14.1771 1.12471C14.8973 1.84485 15.3018 2.82157 15.3018 3.84V13.84C15.298 14.0155 15.2594 14.1886 15.1883 14.3491C15.1172 14.5096 15.015 14.6545 14.8876 14.7754C14.7603 14.8962 14.6102 14.9907 14.4462 15.0533C14.2821 15.1158 14.1073 15.1453 13.9318 15.14ZM10.2018 12.64H12.7318V3.84C12.7318 3.49256 12.5938 3.15936 12.3481 2.91369C12.1025 2.66802 11.7693 2.53 11.4218 2.53C11.0744 2.53 10.7412 2.66802 10.4955 2.91369C10.2498 3.15936 10.1118 3.49256 10.1118 3.84V12.64H10.2018Z" fill="white"/>
<path d="M29.0818 15.14H24.0818C23.7308 15.1454 23.3918 15.0117 23.1389 14.7682C22.886 14.5246 22.7397 14.191 22.7318 13.84V3.84C22.7318 2.82157 23.1364 1.84485 23.8565 1.12471C24.5767 0.40457 25.5534 0 26.5718 0C27.5902 0 28.567 0.40457 29.2871 1.12471C30.0072 1.84485 30.4118 2.82157 30.4118 3.84V13.84C30.404 14.1875 30.2604 14.5181 30.0118 14.7611C29.7632 15.0041 29.4294 15.1401 29.0818 15.14ZM25.3518 12.64H27.8718V3.84C27.8718 3.49256 27.7338 3.15936 27.4881 2.91369C27.2425 2.66802 26.9092 2.53 26.5618 2.53C26.2144 2.53 25.8812 2.66802 25.6355 2.91369C25.3898 3.15936 25.2518 3.49256 25.2518 3.84V12.64H25.3518Z" fill="white"/>
<path d="M18.9818 35.1403C17.3062 35.1378 15.699 34.4751 14.5086 33.2959C13.3181 32.1167 12.6402 30.5159 12.6218 28.8403C12.687 27.1959 13.3861 25.6405 14.5727 24.5C15.7592 23.3596 17.3411 22.7227 18.9868 22.7227C20.6326 22.7227 22.2144 23.3596 23.401 24.5C24.5875 25.6405 25.2866 27.1959 25.3518 28.8403C25.3334 30.5176 24.6541 32.1199 23.4615 33.2994C22.2689 34.4789 20.6592 35.1404 18.9818 35.1403ZM18.9818 25.1403C18.232 25.1482 17.5013 25.3778 16.8817 25.8001C16.262 26.2224 15.7812 26.8186 15.4997 27.5136C15.2183 28.2086 15.1487 28.9714 15.2998 29.7059C15.4509 30.4404 15.8159 31.1137 16.3489 31.6411C16.8819 32.1686 17.5591 32.5266 18.2951 32.67C19.0311 32.8134 19.7931 32.7358 20.4851 32.4471C21.1771 32.1583 21.7683 31.6713 22.1841 31.0473C22.5999 30.4233 22.8218 29.6902 22.8218 28.9403C22.8205 28.4383 22.72 27.9415 22.5261 27.4784C22.3322 27.0153 22.0486 26.5952 21.6918 26.2421C21.3349 25.8889 20.9118 25.6098 20.4467 25.4207C19.9817 25.2317 19.4838 25.1364 18.9818 25.1403Z" fill="white"/>
</svg>
