<svg width="62" height="61" viewBox="0 0 62 61" fill="none" xmlns="http://www.w3.org/2000/svg">
<path d="M0 60.053V26.1699H9.82957L10.5697 39.9313L14.0389 43.921V34.6696L22.6196 43.2502V35.9879L32.2294 44.2448V36.7974L45.3895 47.078V47.9916C45.5398 58.8157 45.5398 58.8157 44.846 59.5558L44.2793 60.134H42.6835C41.6311 60.134 39.0061 60.134 32.6804 60.134C20.3761 60.134 1.97749 60.134 1.97749 60.134L0 60.053ZM3.83932 29.9861V56.179C8.88132 56.179 22.7237 56.179 32.6342 56.179C37.1327 56.179 39.8849 56.179 41.5964 56.179C41.5964 54.4444 41.5964 51.6459 41.5964 48.9167L36.0919 44.6148V52.5594L26.482 44.3026V52.5132L17.9014 43.9325V54.2478L6.85758 41.5272L6.2331 30.0786L3.83932 29.9861Z" fill="white"/>
<path d="M32.7157 35.1667C29.1015 35.1471 25.5151 34.5337 22.0998 33.3512C6.3609 28.0085 9.15944 12.258 9.19413 12.0961C10.0152 7.89834 13.9817 0 23.0712 0C26.5133 0.112178 29.8903 0.968281 32.9701 2.50945C36.4394 4.15156 38.8332 6.73038 43.482 11.8649L44.8119 13.3335C45.9683 14.6172 48.8362 15.3688 52.6177 15.3688C54.5285 15.3593 56.4353 15.193 58.3189 14.8716C58.948 14.7571 59.597 14.8384 60.1784 15.1048C60.7597 15.3711 61.2453 15.8094 61.5694 16.3606C61.8936 16.9118 62.0407 17.5492 61.9909 18.1867C61.9411 18.8242 61.6967 19.431 61.2909 19.9251C56.6768 25.6032 46.8125 35.1667 32.7157 35.1667ZM23.0943 3.83932C14.8259 3.83932 13.0335 12.4546 12.9641 12.8247C12.8947 13.1948 10.79 25.4528 23.3719 29.72C26.3937 30.7626 29.5654 31.3055 32.762 31.3274C44.1758 31.3274 52.5946 24.1114 57.174 18.9191C55.6855 19.1033 54.187 19.1959 52.6871 19.1966C47.6104 19.1966 44.0255 18.098 42.0365 15.9124L40.7066 14.4437C36.2659 9.54046 34.2422 7.297 31.4552 5.99025C28.8585 4.67036 26.0053 3.93239 23.0943 3.82775V3.83932Z" fill="white"/>
<path d="M4.35997 25.9152C3.85084 25.9152 3.36257 25.7129 3.00257 25.3529C2.64256 24.9929 2.44031 24.5046 2.44031 23.9955C2.44031 23.7411 2.44031 17.7508 6.64968 14.3625C9.10129 12.3735 12.3277 11.7837 16.248 12.6047C16.4446 12.6047 22.0301 13.7612 24.898 18.0168C25.1553 18.44 25.239 18.9462 25.1318 19.4297C25.0246 19.9132 24.7346 20.3366 24.3225 20.6113C23.9105 20.886 23.4081 20.9909 22.9206 20.9039C22.433 20.8169 21.9979 20.5449 21.7063 20.1446C19.7751 17.242 15.5426 16.3747 15.5079 16.3747C12.7325 15.7965 10.5815 16.1203 9.07817 17.3461C6.39527 19.5086 6.27963 23.9492 6.27963 23.9955C6.2766 24.5037 6.07337 24.9902 5.71402 25.3495C5.35467 25.7089 4.86816 25.9121 4.35997 25.9152Z" fill="white"/>
</svg>
