<svg width="16" height="16" viewBox="0 0 16 16" fill="none" xmlns="http://www.w3.org/2000/svg">
<path d="M14.0169 8.82548C13.8402 8.82548 13.6556 8.76911 13.4789 8.72885C13.1212 8.6498 12.7697 8.54484 12.4271 8.41481C12.0547 8.27892 11.6453 8.28598 11.2777 8.43463C10.9101 8.58328 10.6103 8.86303 10.436 9.22004L10.2594 9.58239C9.47736 9.1461 8.75877 8.60423 8.1237 7.97194C7.49325 7.33503 6.95295 6.61434 6.51793 5.83006L6.85514 5.60459C7.21111 5.42979 7.49005 5.12913 7.63827 4.76047C7.78649 4.39181 7.79353 3.9812 7.65803 3.60765C7.53055 3.26335 7.42594 2.91097 7.3449 2.55281C7.30476 2.37566 7.27264 2.19046 7.24856 2.00526C7.15106 1.43807 6.85484 0.924441 6.41325 0.556856C5.97167 0.18927 5.41373 -0.00811167 4.83991 0.000255499H2.43126C2.08525 -0.00300286 1.74259 0.0685491 1.42662 0.21004C1.11066 0.351531 0.828797 0.559639 0.600233 0.820198C0.371669 1.08076 0.201766 1.38765 0.102091 1.71998C0.00241563 2.05231 -0.0246914 2.40228 0.0226149 2.74606C0.450341 6.11944 1.98649 9.25376 4.38841 11.6539C6.79033 14.0541 9.92112 15.5833 13.2862 16H13.5913C14.1834 16.0009 14.755 15.783 15.1971 15.388C15.4511 15.1602 15.654 14.8809 15.7924 14.5686C15.9308 14.2563 16.0016 13.918 16 13.5763V11.1606C15.9901 10.6013 15.7871 10.0627 15.4254 9.63687C15.0637 9.211 14.5659 8.92422 14.0169 8.82548ZM14.4183 13.6568C14.4182 13.7711 14.3937 13.8841 14.3467 13.9882C14.2996 14.0924 14.231 14.1853 14.1453 14.2607C14.0559 14.3388 13.951 14.3971 13.8376 14.4318C13.7241 14.4665 13.6046 14.4768 13.487 14.462C10.4801 14.0754 7.68712 12.6958 5.54863 10.5408C3.41013 8.3859 2.04781 5.57829 1.67655 2.56086C1.66377 2.44291 1.67497 2.32358 1.70947 2.2101C1.74397 2.09661 1.80106 1.99132 1.87727 1.90058C1.95251 1.81469 2.04512 1.74585 2.14895 1.69864C2.25278 1.65144 2.36544 1.62695 2.47944 1.6268H4.88808C5.07479 1.62264 5.25711 1.68388 5.40365 1.79998C5.55019 1.91609 5.65179 2.0798 5.69096 2.26293C5.72308 2.48302 5.76322 2.70043 5.8114 2.91516C5.90415 3.33962 6.02758 3.75676 6.18072 4.16325L5.05669 4.68664C4.96058 4.73087 4.87413 4.79369 4.8023 4.87152C4.73047 4.94934 4.67468 5.04063 4.63812 5.14014C4.60157 5.23965 4.58497 5.34542 4.58929 5.45138C4.5936 5.55734 4.61875 5.6614 4.66327 5.75759C5.81878 8.23988 7.80836 10.2353 10.2835 11.3941C10.4789 11.4747 10.6982 11.4747 10.8936 11.3941C10.9938 11.3582 11.0858 11.3027 11.1644 11.2308C11.2429 11.1589 11.3065 11.0721 11.3513 10.9754L11.8491 9.84811C12.2641 9.99698 12.6878 10.1207 13.1176 10.2185C13.3317 10.2668 13.5485 10.3071 13.768 10.3393C13.9506 10.3786 14.1138 10.4805 14.2296 10.6274C14.3453 10.7744 14.4064 10.9573 14.4022 11.1445L14.4183 13.6568Z" fill="white"/>
</svg>
