<svg width="37" height="38" viewBox="0 0 37 38" fill="none" xmlns="http://www.w3.org/2000/svg">
<path d="M32.6079 14.7634V14.4555C32.6189 11.3747 31.6414 8.37164 29.8191 5.88757C27.9968 3.40351 25.4258 1.56945 22.4838 0.654916H22.3752C20.8557 0.191697 19.2726 -0.028352 17.6844 0.00292043C13.9025 0.210458 10.3424 1.85341 7.7306 4.59646C5.11881 7.33951 3.65227 10.9759 3.63028 14.7634C2.56899 15.1367 1.64977 15.8303 0.999503 16.7484C0.349238 17.6665 0 18.7638 0 19.8888C0 21.0138 0.349238 22.1111 0.999503 23.0292C1.64977 23.9473 2.56899 24.6409 3.63028 25.0142C4.0033 28.5907 5.69297 31.9007 8.37079 34.3007C11.0486 36.7007 14.5232 38.0192 18.1191 37.9998H18.5356C22.0129 37.8315 25.318 36.4365 27.8644 34.0626C30.4107 31.6887 32.0336 28.4893 32.4449 25.0323C33.5186 24.6801 34.4559 24.0018 35.1261 23.0919C35.7963 22.182 36.1661 21.0858 36.184 19.9559C36.2019 18.826 35.8671 17.7186 35.2261 16.7879C34.5851 15.8572 33.6699 15.1495 32.6079 14.7634ZM18.4451 34.3776C15.8233 34.4534 13.2626 33.5785 11.2355 31.9141C9.2083 30.2498 7.85152 27.9084 7.41547 25.3221H28.7321C28.2901 27.7705 27.0333 29.9976 25.1658 31.6415C23.2982 33.2854 20.9298 34.2497 18.4451 34.3776ZM30.7968 21.6999H5.44138C4.96104 21.6999 4.50038 21.5091 4.16074 21.1694C3.82109 20.8298 3.63028 20.3691 3.63028 19.8888C3.63028 19.4085 3.82109 18.9478 4.16074 18.6082C4.50038 18.2685 4.96104 18.0777 5.44138 18.0777H9.06357C9.54391 18.0777 10.0046 17.8869 10.3442 17.5472C10.6839 17.2076 10.8747 16.7469 10.8747 16.2666C10.8747 15.7863 10.6839 15.3256 10.3442 14.986C10.0046 14.6463 9.54391 14.4555 9.06357 14.4555H7.25248C7.33355 12.5767 7.87054 10.7458 8.81712 9.12084C9.7637 7.49588 11.0914 6.12563 12.6858 5.12833V10.8333C12.6858 11.3136 12.8766 11.7743 13.2162 12.1139C13.5559 12.4536 14.0165 12.6444 14.4969 12.6444C14.9772 12.6444 15.4379 12.4536 15.7775 12.1139C16.1172 11.7743 16.308 11.3136 16.308 10.8333V3.7519C16.7996 3.66977 17.2954 3.61535 17.7931 3.5889H18.1191C18.726 3.59744 19.3315 3.65193 19.9302 3.7519V10.8333C19.9302 11.3136 20.121 11.7743 20.4606 12.1139C20.8003 12.4536 21.2609 12.6444 21.7413 12.6444C22.2216 12.6444 22.6823 12.4536 23.0219 12.1139C23.3616 11.7743 23.5524 11.3136 23.5524 10.8333V5.074C24.3206 5.51885 25.0374 6.04728 25.6895 6.64966C26.7337 7.66369 27.5635 8.87716 28.1297 10.2181C28.696 11.559 28.987 12.9999 28.9857 14.4555H27.1746C26.6942 14.4555 26.2336 14.6463 25.8939 14.986C25.5543 15.3256 25.3635 15.7863 25.3635 16.2666C25.3635 16.7469 25.5543 17.2076 25.8939 17.5472C26.2336 17.8869 26.6942 18.0777 27.1746 18.0777H30.7968C31.2771 18.0777 31.7378 18.2685 32.0774 18.6082C32.4171 18.9478 32.6079 19.4085 32.6079 19.8888C32.6079 20.3691 32.4171 20.8298 32.0774 21.1694C31.7378 21.5091 31.2771 21.6999 30.7968 21.6999Z" fill="white"/>
</svg>
