<svg width="62" height="49" viewBox="0 0 62 49" fill="none" xmlns="http://www.w3.org/2000/svg">
<path d="M51.1098 12.8938C49.2368 8.59045 46.0043 5.0199 41.9077 2.72923C37.811 0.438573 33.0762 -0.44583 28.4288 0.211551C23.7813 0.868933 19.4777 3.03183 16.1772 6.36882C12.8768 9.7058 10.7617 14.0328 10.156 18.6867C7.23339 19.3865 4.6696 21.1352 2.95149 23.6005C1.23338 26.0659 0.48061 29.0764 0.836134 32.0602C1.19166 35.0439 2.63072 37.7933 4.88003 39.786C7.12933 41.7788 10.0322 42.8762 13.0375 42.8699C13.8505 42.8699 14.6302 42.547 15.205 41.9722C15.7799 41.3974 16.1029 40.6178 16.1029 39.8049C16.1029 38.992 15.7799 38.2124 15.205 37.6375C14.6302 37.0627 13.8505 36.7398 13.0375 36.7398C11.4115 36.7398 9.85209 36.094 8.70234 34.9444C7.55259 33.7947 6.90667 32.2355 6.90667 30.6097C6.90667 28.9839 7.55259 27.4247 8.70234 26.2751C9.85209 25.1255 11.4115 24.4796 13.0375 24.4796C13.8505 24.4796 14.6302 24.1567 15.205 23.5819C15.7799 23.0071 16.1029 22.2275 16.1029 21.4146C16.1107 17.7895 17.4035 14.2845 19.7515 11.5224C22.0996 8.76028 25.3509 6.91984 28.9278 6.32805C32.5047 5.73626 36.1755 6.43144 39.2883 8.29009C42.401 10.1487 44.754 13.0505 45.9293 16.4799C46.1045 17.0066 46.4195 17.4758 46.8406 17.8375C47.2617 18.1992 47.7731 18.4397 48.3203 18.5334C50.362 18.9192 52.2129 19.9851 53.5714 21.5572C54.9299 23.1294 55.7158 25.1152 55.8011 27.1911C55.8864 29.267 55.2661 31.3106 54.0412 32.9889C52.8164 34.6672 51.0592 35.8813 49.056 36.4333C48.2674 36.6365 47.5918 37.1447 47.1779 37.8459C46.764 38.5472 46.6456 39.3842 46.8489 40.1727C47.0521 40.9612 47.5603 41.6367 48.2617 42.0505C48.963 42.4644 49.8001 42.5827 50.5887 42.3795C53.8147 41.5271 56.6744 39.6454 58.7335 37.0202C60.7926 34.3949 61.9387 31.1694 61.9976 27.8336C62.0566 24.4978 61.0252 21.2339 59.0601 18.5375C57.0951 15.8411 54.3037 13.8596 51.1098 12.8938ZM33.6063 19.2384C33.3148 18.9594 32.971 18.7406 32.5948 18.5947C31.8484 18.2882 31.0114 18.2882 30.265 18.5947C29.8888 18.7406 29.545 18.9594 29.2535 19.2384L20.0573 28.4335C19.48 29.0107 19.1557 29.7935 19.1557 30.6097C19.1557 31.426 19.48 32.2087 20.0573 32.7859C20.6345 33.3631 21.4174 33.6873 22.2337 33.6873C23.05 33.6873 23.8329 33.3631 24.4101 32.7859L28.3645 28.8013V45.935C28.3645 46.7479 28.6875 47.5275 29.2623 48.1023C29.8372 48.6771 30.6169 49 31.4299 49C32.2429 49 33.0226 48.6771 33.5975 48.1023C34.1723 47.5275 34.4953 46.7479 34.4953 45.935V28.8013L38.4497 32.7859C38.7346 33.0732 39.0737 33.3012 39.4472 33.4568C39.8208 33.6124 40.2214 33.6925 40.6261 33.6925C41.0308 33.6925 41.4314 33.6124 41.805 33.4568C42.1785 33.3012 42.5176 33.0732 42.8026 32.7859C43.0899 32.501 43.3179 32.162 43.4735 31.7885C43.6292 31.415 43.7093 31.0143 43.7093 30.6097C43.7093 30.2051 43.6292 29.8045 43.4735 29.431C43.3179 29.0575 43.0899 28.7185 42.8026 28.4335L33.6063 19.2384Z" fill="#BCBFCC"/>
</svg>
