<svg width="16" height="16" viewBox="0 0 16 16" fill="none" xmlns="http://www.w3.org/2000/svg">
<path d="M0 16L1.13003 11.8913C0.432722 10.6887 0.066315 9.32533 0.0669848 7.92733C0.0689944 3.55667 3.64264 0 8.03349 0C10.1643 0.000666667 12.1644 0.826667 13.6689 2.32533C15.1727 3.824 16.0007 5.816 16 7.93467C15.998 12.306 12.4243 15.8627 8.03349 15.8627C6.70049 15.862 5.38692 15.5293 4.22339 14.8973L0 16ZM4.41899 13.462C5.54166 14.1253 6.61341 14.5227 8.03081 14.5233C11.6801 14.5233 14.6529 11.5673 14.6549 7.93333C14.6563 4.292 11.6976 1.34 8.03617 1.33867C4.38416 1.33867 1.41338 4.29467 1.41204 7.928C1.41137 9.41133 1.84811 10.522 2.5816 11.684L1.91242 14.116L4.41899 13.462ZM12.0466 9.81933C11.997 9.73667 11.8644 9.68733 11.6647 9.588C11.4658 9.48867 10.4871 9.00933 10.3043 8.94333C10.1221 8.87733 9.98945 8.844 9.85615 9.04267C9.72352 9.24067 9.34171 9.68733 9.22582 9.81933C9.10994 9.95133 8.99338 9.968 8.79444 9.86867C8.59549 9.76933 7.95378 9.56067 7.1935 8.88533C6.60203 8.36 6.20213 7.71133 6.08624 7.51267C5.97036 7.31467 6.07418 7.20733 6.17332 7.10867C6.26308 7.02 6.37227 6.87733 6.47207 6.76133C6.57322 6.64667 6.60604 6.564 6.67303 6.43133C6.73934 6.29933 6.70652 6.18333 6.65628 6.084C6.60604 5.98533 6.20815 5.01 6.0427 4.61333C5.8806 4.22733 5.71649 4.27933 5.59457 4.27333L5.21276 4.26667C5.08013 4.26667 4.86444 4.316 4.68224 4.51467C4.50004 4.71333 3.9856 5.192 3.9856 6.16733C3.9856 7.14267 4.69899 8.08467 4.79812 8.21667C4.89793 8.34867 6.20146 10.35 8.19827 11.208C8.6732 11.412 9.04429 11.534 9.333 11.6253C9.80993 11.776 10.244 11.7547 10.587 11.704C10.9694 11.6473 11.7645 11.2247 11.9307 10.762C12.0968 10.2987 12.0968 9.902 12.0466 9.81933Z" fill="white"/>
</svg>
